<svg xmlns="http://www.w3.org/2000/svg" xmlns:xlink="http://www.w3.org/1999/xlink" version="1.1" x="0px" y="0px" viewBox="0 0 100 125" enable-background="new 0 0 100 100" xml:space="preserve"><path d="M21.571,13.667c0.014,0.027,0.021,0.055,0.044,0.074c0.005,0.004,0.005,0.012,0.01,0.016l0.256,0.188  c0.013,0.009,0.027,0.007,0.041,0.014c0.009,0.004,0.012,0.016,0.021,0.019l0.674,0.229c0.012,0.004,0.023,0.004,0.035,0.006  c0.003,0,0.004,0.003,0.006,0.004l1.002,0.143l0.808,0.389l-0.317,0.354c-0.005,0.006-0.002,0.014-0.007,0.02  c-0.004,0.006-0.012,0.005-0.016,0.012l-0.472,0.741c-0.007,0.01-0.001,0.023-0.007,0.034c-0.005,0.012-0.018,0.016-0.021,0.028  l-0.081,0.297c-0.004,0.011,0.005,0.021,0.004,0.032c-0.004,0.03,0.003,0.055,0.011,0.084c0.008,0.03,0.015,0.054,0.033,0.078  c0.007,0.01,0.005,0.021,0.013,0.03l0.543,0.53l-0.041,0.187c-0.001,0.009,0.006,0.016,0.005,0.024s-0.01,0.015-0.01,0.024v0.242  c0,0.026,0.02,0.043,0.027,0.067c0.007,0.022,0.001,0.046,0.016,0.066l0.135,0.188c0.01,0.014,0.028,0.011,0.04,0.021  c0.018,0.017,0.024,0.041,0.048,0.053l0.646,0.31c0.019,0.009,0.038,0.01,0.057,0.013c0.006,0.001,0.008,0.008,0.014,0.008  l0.634,0.081c0.01,0.002,0.02,0.002,0.028,0.002c0.051,0,0.101-0.016,0.143-0.049l0.149-0.117l0.342-0.083  c0.063-0.015,0.112-0.056,0.144-0.107c0-0.002,0.003-0.001,0.003-0.003l0.244-0.432c0.005,0.001,0.008,0.008,0.014,0.008  l1.038,0.121c0.009,0.002,0.018,0.002,0.026,0.002l0,0h0.634c0.013,0,0.026-0.001,0.04-0.004l0.479-0.084l0.226,0.078l2.018,1.408  v0.123c0,0.008,0.007,0.013,0.008,0.021c0.003,0.029,0.019,0.051,0.032,0.077c0.015,0.028,0.023,0.054,0.047,0.073  c0.006,0.005,0.005,0.014,0.011,0.019l0.27,0.188c0.011,0.007,0.023,0.006,0.034,0.011c0.007,0.004,0.009,0.013,0.017,0.016  l1.083,0.409l0.992,0.622c0.004,0.002,0.009,0.001,0.014,0.004c0.003,0.001,0.003,0.005,0.006,0.007l1.712,0.849  c0.006,0.004,0.014,0.003,0.021,0.005c0.003,0.002,0.004,0.006,0.008,0.008l1.88,0.639l-0.109,0.306  c-0.002,0.007,0.003,0.013,0.001,0.021c-0.002,0.007-0.01,0.011-0.011,0.018l-0.242,1.415c0,0.001,0,0.001,0,0.002  s-0.001,0.001-0.001,0.001l-0.297,1.873c0,0.003,0.002,0.004,0.002,0.007c0,0.001-0.003,0.003-0.003,0.004l-0.418,3.801  c0,0.002,0.002,0.003,0.002,0.005c0,0.001-0.002,0.001-0.002,0.003l-0.512,6.717l-0.309,2.121c0,0.002,0,0.002,0,0.003  c0,0.002-0.001,0.002-0.001,0.003l-0.553,4.568c0,0.002,0.001,0.002,0,0.003c0,0.001-0.001,0.002-0.001,0.003l-1.509,15.578  c0,0.004,0.002,0.006,0.002,0.008c0,0.004-0.003,0.004-0.003,0.008l-0.094,2.537l-0.269,2.119c0,0,0.002,0.002,0.001,0.004  c0,0.002-0.002,0.004-0.002,0.006l-0.714,9.016l-0.323,3.162c0,0.002,0.002,0.002,0.001,0.004c0,0.002-0.002,0.004-0.002,0.006  l-0.147,2.371l-0.322,2.027c-0.001,0.006,0.005,0.012,0.005,0.018c-0.001,0.008-0.008,0.012-0.008,0.018v0.162  c0,0.127,0.104,0.23,0.23,0.23h1.01v0.449l-0.144,0.193c-0.016,0.021-0.01,0.047-0.018,0.07s-0.027,0.041-0.027,0.066v0.607  c0,0.02,0.016,0.033,0.021,0.051c0.004,0.02-0.005,0.037,0.004,0.055l0.216,0.418c0.022,0.043,0.059,0.074,0.099,0.096  c0.002,0,0.003,0.004,0.005,0.006l0.499,0.242c0.032,0.016,0.066,0.023,0.101,0.023h1.253l-0.025,0.062  c-0.005,0.016,0.004,0.027,0.001,0.043s-0.017,0.025-0.017,0.041v0.363l-0.041,0.041c-0.045,0.045-0.067,0.104-0.067,0.162v0.242  c0,0.025,0.02,0.041,0.026,0.064c0.009,0.027,0.014,0.053,0.032,0.076c0.02,0.023,0.045,0.033,0.072,0.049  c0.02,0.01,0.03,0.031,0.054,0.035l0.862,0.176c0.016,0.004,0.031,0.006,0.046,0.006h1.603v0.08c0,0.008,0.008,0.012,0.009,0.02  c0.003,0.029,0.019,0.053,0.033,0.078c0.014,0.027,0.022,0.053,0.046,0.072c0.006,0.006,0.006,0.014,0.012,0.018l0.391,0.27  c0.007,0.006,0.016,0.004,0.022,0.008c0.005,0.002,0.005,0.01,0.011,0.012l0.714,0.336c0.032,0.016,0.065,0.023,0.099,0.023h1.393  l0.118,0.299l0,0c0.001,0,0.001,0,0.002,0.002c0.021,0.053,0.062,0.088,0.108,0.113c0.005,0.002,0.007,0.01,0.012,0.012l0.809,0.35  c0.03,0.014,0.061,0.02,0.092,0.02h0.302l0.033,0.363l-0.052,0.572c0,0.002,0.001,0.002,0.001,0.004  c-0.002,0.027,0.017,0.053,0.025,0.08c0.01,0.029,0.01,0.062,0.029,0.086c0.001,0,0,0.002,0.001,0.004l0.216,0.242  c0.014,0.016,0.035,0.012,0.052,0.023c0.02,0.014,0.03,0.037,0.056,0.045l0.916,0.27c0.021,0.006,0.044,0.008,0.065,0.008h0.795  c0.064,0,0.122-0.027,0.164-0.07c0.001,0,0.002,0,0.003,0l0.27-0.283c0.005-0.006,0.002-0.014,0.007-0.018  c0.004-0.006,0.01-0.004,0.014-0.008l0.153-0.217l1.282,0.096l1.063,0.223l0.327,0.119l0.098,0.275  c0.011,0.029,0.033,0.047,0.052,0.066c0.011,0.014,0.016,0.029,0.029,0.039c0.04,0.029,0.086,0.047,0.136,0.047  c0.017,0,0.033-0.002,0.051-0.004l0.716-0.16l-0.086,0.488l-0.284,0.668l-1.428,1.561c-0.008,0.008-0.005,0.021-0.012,0.031  c-0.006,0.008-0.019,0.01-0.024,0.02l-0.296,0.58l-0.711,0.471l-0.352,0.084c-0.01,0.002-0.015,0.014-0.023,0.018  c-0.01,0.004-0.021-0.002-0.03,0.002l-0.835,0.445c-0.019,0.01-0.021,0.031-0.036,0.043c-0.015,0.014-0.035,0.014-0.046,0.031  l-0.126,0.184l-0.389,0.1c-0.017,0.006-0.023,0.021-0.038,0.029s-0.032,0.002-0.046,0.012l-0.224,0.174l-0.348,0.182  c-0.02,0.01-0.023,0.031-0.038,0.045s-0.036,0.016-0.047,0.031l-0.216,0.324c-0.013,0.02-0.007,0.043-0.013,0.064  c-0.007,0.021-0.026,0.039-0.026,0.062v0.191l-0.089,0.186h-0.085c-0.02,0-0.031,0.016-0.049,0.02s-0.034-0.004-0.052,0.004  l-0.363,0.174c-0.01,0.006-0.012,0.018-0.021,0.023c-0.01,0.006-0.021,0.002-0.03,0.01l-0.296,0.256  c-0.003,0.002-0.002,0.006-0.004,0.008c-0.022,0.021-0.027,0.053-0.04,0.08c-0.012,0.027-0.032,0.049-0.033,0.078  c0,0.004-0.003,0.006-0.003,0.008v0.365c0,0.002,0.002,0.002,0.002,0.006c0.001,0.029,0.021,0.051,0.033,0.078  c0.013,0.029,0.016,0.061,0.038,0.08c0.001,0.002,0,0.004,0.002,0.006l0.297,0.27c0.017,0.016,0.039,0.014,0.059,0.023  c0.016,0.008,0.023,0.025,0.041,0.029l0.943,0.229c0.011,0.004,0.021,0.004,0.029,0.004c0.002,0,0.003,0.002,0.004,0.002  l1.024,0.096c0.008,0,0.015,0,0.021,0c0.018,0,0.035-0.002,0.053-0.006l1.546-0.363l0.231-0.037c0.001,0,0.002-0.002,0.003-0.002  c0.004-0.002,0.008-0.002,0.013-0.002l0.903-0.217c0.005,0,0.007-0.008,0.013-0.008c0.013-0.006,0.025-0.004,0.038-0.01l0.634-0.324  c0.008-0.004,0.009-0.014,0.017-0.02s0.02-0.002,0.027-0.01l0.27-0.229l0.231-0.197l0.938-0.266l2.873-0.523  c0.006-0.002,0.009-0.008,0.016-0.01c0.017-0.006,0.033-0.004,0.05-0.014l0.363-0.188c0.012-0.006,0.014-0.021,0.023-0.029  c0.025-0.018,0.039-0.037,0.055-0.064c0.016-0.025,0.027-0.047,0.032-0.078c0.002-0.012,0.014-0.02,0.014-0.033v-0.322  c0-0.102-0.071-0.172-0.161-0.203v-0.432c0-0.021-0.019-0.037-0.024-0.057c-0.005-0.021,0.002-0.043-0.009-0.061l-0.028-0.049  l0.132-0.426c0.003-0.01-0.004-0.018-0.003-0.025c0.002-0.01,0.012-0.016,0.013-0.027l0.107-1.508  c0.001-0.01-0.008-0.016-0.008-0.025s0.007-0.016,0.006-0.025l-0.101-0.678l0.022-0.078l1.135,0.488  c0.009,0.004,0.019,0.004,0.028,0.006c0.004,0.002,0.006,0.006,0.01,0.008l1.253,0.297c0.018,0.004,0.035,0.006,0.053,0.006h3.167  c0.017,0,0.035-0.002,0.053-0.006l1.132-0.264h1.727l0,0c0.012,0,0.021-0.002,0.032-0.002l1.334-0.189  c0.003,0,0.004-0.004,0.006-0.004c0.011-0.002,0.021-0.002,0.03-0.004l2.777-0.869l0.386,0.672l1.118,2.557l0.191,0.738v0.201  l-0.1,0.127c-0.016,0.02-0.012,0.047-0.02,0.07c-0.009,0.025-0.029,0.043-0.029,0.07v0.162c0,0.068,0.033,0.125,0.081,0.168v0.143  c0,0.021,0.018,0.037,0.023,0.057c0.006,0.021-0.002,0.043,0.01,0.061l0.13,0.219l-0.183,0.143c-0.01,0.008-0.009,0.021-0.018,0.031  c-0.008,0.008-0.021,0.006-0.027,0.016l-0.135,0.189c-0.015,0.02-0.009,0.045-0.017,0.066c-0.008,0.023-0.027,0.041-0.027,0.066  v0.217v0.336c0,0.029,0.021,0.047,0.03,0.072c0.008,0.023,0.003,0.051,0.02,0.07l0.257,0.324c0.012,0.014,0.031,0.012,0.045,0.021  c0.021,0.018,0.034,0.045,0.062,0.055l0.283,0.094c0.009,0.004,0.019,0.004,0.028,0.004c0.002,0.002,0.003,0.004,0.006,0.004  l0.643,0.109c0.015,0.004,0.024,0.02,0.04,0.02c0.007,0,0.013-0.008,0.02-0.01l0.013,0.004c0.014,0.002,0.026,0.002,0.038,0.002  h1.28c0.013,0,0.025,0,0.037-0.002l1.482-0.244c0.005,0,0.007-0.006,0.011-0.006c0.015-0.004,0.029-0.004,0.042-0.008l0.445-0.189  c0.019-0.008,0.024-0.029,0.04-0.041c0.014-0.01,0.033-0.006,0.044-0.02l0.256-0.297c0.007-0.008,0.004-0.02,0.009-0.027  c0.01-0.014,0.024-0.021,0.03-0.037l0.121-0.295c0.006-0.016-0.003-0.029,0-0.045s0.018-0.027,0.018-0.043v-0.889  c0-0.014-0.013-0.023-0.015-0.035c-0.002-0.014,0.008-0.025,0.003-0.039l-0.083-0.248v-0.285c0-0.018-0.015-0.029-0.019-0.045  c-0.003-0.016,0.007-0.033-0.001-0.049l-0.2-0.453l0.062-0.08c0.017-0.02,0.012-0.047,0.021-0.07  c0.009-0.025,0.029-0.043,0.029-0.07v-0.242c0-0.016-0.014-0.025-0.017-0.041c-0.005-0.029-0.016-0.051-0.031-0.076  c-0.018-0.025-0.033-0.045-0.059-0.062c-0.012-0.008-0.015-0.025-0.028-0.031l-0.209-0.094l-0.007-0.02v-0.256  c0-0.02-0.016-0.033-0.021-0.051c-0.004-0.018,0.005-0.035-0.004-0.053l-0.107-0.215l0,0l-1.105-2.223  c-0.001-0.004-0.006-0.004-0.008-0.008c-0.001-0.004,0.001-0.008-0.001-0.01l-0.788-1.297l0.365-0.025  c0.003,0,0.003-0.002,0.005-0.002c0.015-0.002,0.028-0.002,0.042-0.006l0.346-0.1h0.265c0.127,0,0.23-0.104,0.23-0.23v-0.377  c0-0.031-0.022-0.053-0.033-0.08c-0.01-0.025-0.007-0.053-0.025-0.072l-0.145-0.162l0.189-0.055l1.77-0.316h0.453  c0.019,0,0.038-0.004,0.057-0.008l0.998-0.256c0.009-0.002,0.012-0.012,0.02-0.016c0.04-0.016,0.071-0.039,0.098-0.074  c0.009-0.01,0.019-0.016,0.024-0.027c0.003-0.004,0.008-0.006,0.011-0.012l0.152-0.336l0.94-0.189h2.296  c0.127,0,0.229-0.102,0.229-0.229v-0.094h0.161c0.127,0,0.23-0.104,0.23-0.23V83.74l0.32-0.156h0.743  c0.029,0,0.06-0.006,0.089-0.018l0.512-0.217c0.007-0.002,0.009-0.012,0.015-0.014c0.009-0.006,0.019-0.004,0.027-0.01l0.175-0.121  c0.016-0.01,0.017-0.029,0.028-0.043c0.021-0.021,0.035-0.041,0.046-0.07s0.012-0.053,0.011-0.084c0-0.018,0.012-0.033,0.007-0.049  l-0.198-0.754l-0.187-1.336c-0.001-0.004-0.004-0.004-0.005-0.008c0-0.002,0.002-0.004,0.002-0.008l-0.513-2.479l-1.466-8.195l0,0  l-2.17-14.137c-0.001-0.008-0.009-0.01-0.011-0.018c-0.001-0.006,0.004-0.012,0.002-0.02l-0.11-0.342v-0.207  c0-0.012-0.01-0.018-0.012-0.029c-0.001-0.01,0.007-0.02,0.004-0.031l-0.094-0.35h-0.001l0,0l-0.363-1.336  c-0.002-0.004-0.008-0.006-0.011-0.012c-0.002-0.006,0.003-0.012,0-0.018l-0.019-0.043h0.238c0.055,0,0.109-0.02,0.152-0.059  l0.243-0.215c0.002-0.002,0.001-0.006,0.003-0.006c0.022-0.021,0.027-0.055,0.04-0.084c0.011-0.025,0.03-0.047,0.031-0.076  c0-0.002,0.003-0.004,0.003-0.006v-0.297c0-0.018-0.014-0.027-0.018-0.043c-0.003-0.016,0.007-0.029,0-0.045l-0.121-0.295  c-0.005-0.012-0.019-0.016-0.025-0.027c-0.006-0.01-0.002-0.023-0.011-0.033l-0.494-0.594h0.034c0.051,0,0.101-0.016,0.143-0.049  l0.188-0.148c0.004-0.004,0.004-0.01,0.008-0.012c0.022-0.021,0.028-0.049,0.042-0.076s0.031-0.049,0.033-0.08  c0-0.004,0.005-0.008,0.005-0.014v-0.309c0-0.018-0.015-0.029-0.019-0.045c-0.003-0.018,0.006-0.031-0.001-0.047l-0.169-0.387  v-0.137l0.2-0.367c0.011-0.018,0.002-0.037,0.007-0.057c0.006-0.019,0.022-0.032,0.022-0.054v-0.404  c0-0.021-0.018-0.035-0.023-0.055c-0.005-0.02,0.004-0.041-0.007-0.06l-0.233-0.408l0.1-0.963c0.002-0.012-0.008-0.02-0.009-0.03  c0-0.011,0.009-0.02,0.008-0.031l-0.311-1.873c0-0.005-0.005-0.006-0.007-0.011c0-0.005,0.003-0.008,0.002-0.013l-0.525-1.913  c-0.001-0.004-0.005-0.004-0.006-0.008c-0.001-0.003,0.002-0.006,0.001-0.009l-1.06-2.989l-0.603-3.096  c-0.001-0.004-0.005-0.005-0.005-0.008c-0.001-0.003,0.002-0.006,0.001-0.009l-0.647-2.372c0-0.003-0.004-0.004-0.004-0.006  c-0.001-0.003,0.001-0.005,0-0.008l-0.539-1.59c-0.001-0.004-0.006-0.005-0.007-0.009c-0.002-0.004,0.001-0.008-0.001-0.012  l-1.455-3.261c-0.001-0.003-0.004-0.003-0.005-0.005s0.001-0.004,0-0.006l-0.853-1.677l-0.398-1.344  c-0.002-0.005-0.007-0.006-0.009-0.01c-0.002-0.005,0.002-0.009,0-0.014l-0.983-2.358c-0.003-0.005-0.009-0.005-0.011-0.011  c-0.003-0.004,0-0.009-0.002-0.014l-0.579-1.024c-0.002-0.003-0.007-0.003-0.009-0.007c-0.002-0.003,0-0.007-0.002-0.01  l-1.672-2.426c-0.002-0.003-0.007-0.003-0.009-0.006c-0.003-0.004-0.002-0.009-0.004-0.012l-0.931-1.105  c-0.009-0.011-0.023-0.01-0.034-0.018c-0.011-0.01-0.012-0.024-0.023-0.032l-1.167-0.692c0.008-0.008,0.006-0.021,0.013-0.03  c0.005-0.007,0.017-0.004,0.021-0.012c0.012-0.02,0.004-0.041,0.009-0.061c0.007-0.021,0.024-0.036,0.024-0.059v-0.27  c0-0.012-0.011-0.02-0.013-0.031c-0.004-0.029-0.017-0.051-0.032-0.077c-0.016-0.027-0.029-0.049-0.054-0.067  c-0.009-0.007-0.01-0.02-0.021-0.025l-0.24-0.132L62.3,19.096V18.72c0-0.018-0.015-0.028-0.019-0.045  c-0.003-0.016,0.007-0.03,0-0.047l-0.479-1.114V17.21c0-0.03-0.021-0.051-0.033-0.078c-0.009-0.024-0.006-0.052-0.024-0.073  l-0.446-0.511l-0.151-0.373l-0.051-0.262c-0.005-0.028-0.029-0.044-0.043-0.067c-0.014-0.022-0.015-0.05-0.036-0.067l-0.293-0.24  v-0.457c0-0.023-0.019-0.038-0.025-0.06C60.693,15,60.7,14.978,60.688,14.958l-0.274-0.437l-0.067-0.312v-0.301  c0-0.021-0.017-0.034-0.022-0.054c-0.004-0.019,0.004-0.038-0.006-0.056l-0.27-0.499c-0.006-0.012-0.021-0.013-0.028-0.022  c-0.008-0.011-0.006-0.025-0.015-0.034l-0.212-0.201v-0.454c0-0.01-0.008-0.015-0.009-0.023c-0.002-0.009,0.006-0.016,0.004-0.024  l-0.148-0.701c-0.002-0.013-0.015-0.018-0.02-0.029c-0.004-0.011,0.002-0.022-0.004-0.033l-0.444-0.81l-0.2-0.793V9.475  c0-0.012-0.012-0.02-0.014-0.031c-0.001-0.011,0.008-0.021,0.004-0.03L58.68,8.403c-0.004-0.016-0.021-0.021-0.027-0.035  s-0.001-0.03-0.012-0.043l-1.388-1.819C57.248,6.5,57.239,6.5,57.234,6.495s-0.004-0.015-0.01-0.02l-1.36-1.24  c-0.012-0.01-0.026-0.007-0.039-0.014c-0.012-0.008-0.016-0.023-0.029-0.029l-1.092-0.444c-0.014-0.006-0.026,0.003-0.041,0  c-0.02-0.003-0.03-0.021-0.053-0.017l-0.927,0.026l-0.74-0.169c-0.013-0.003-0.022,0.006-0.035,0.005  c-0.011-0.001-0.02-0.011-0.031-0.011L51.273,4.69c-0.005,0.001-0.007,0.005-0.011,0.005c-0.005,0.002-0.007-0.003-0.012-0.002  l-1.482,0.243c-0.014,0.002-0.021,0.017-0.034,0.021c-0.015,0.005-0.029-0.002-0.042,0.005l-1.038,0.593  c-0.015,0.009-0.017,0.026-0.028,0.037c-0.013,0.011-0.031,0.011-0.041,0.024l-0.58,0.769C48.001,6.39,48.004,6.398,48,6.404  c-0.003,0.006-0.011,0.006-0.015,0.012l-0.444,0.836c-0.005,0.01,0,0.02-0.003,0.029c-0.004,0.009-0.015,0.014-0.018,0.023  l-0.188,0.768c-0.006,0.025,0.009,0.047,0.011,0.071c0.003,0.03-0.001,0.058,0.013,0.084c0.015,0.028,0.038,0.042,0.062,0.062  c0.019,0.016,0.026,0.04,0.049,0.05c0.009,0.003,0.018,0.002,0.025,0.005c0.004,0.001,0.005,0.006,0.009,0.007  c0.019,0.004,0.037,0.007,0.056,0.007c0.048,0,0.094-0.018,0.133-0.046c0.013-0.009,0.019-0.024,0.029-0.036  c0.018-0.019,0.039-0.034,0.05-0.06l0.078-0.186c0,0.001,0.001,0.001,0.001,0.001c0.018,0.019,0.023,0.044,0.047,0.057  c0.007,0.004,0.014,0.002,0.021,0.005c0.004,0.002,0.004,0.007,0.008,0.008c0.026,0.01,0.053,0.014,0.078,0.014  c0.021,0,0.038-0.011,0.058-0.016l-0.167,0.574c0,0.001-0.001,0.001-0.001,0.001l-0.081,0.242c0,0.003,0.001,0.005,0.001,0.008  c-0.001,0.002-0.004,0.003-0.004,0.005l-0.081,0.297c-0.004,0.015,0.007,0.028,0.006,0.043c-0.002,0.016-0.015,0.027-0.013,0.044  l0.135,1.172c0.004,0.035,0.028,0.061,0.046,0.089c0.011,0.017,0.012,0.036,0.026,0.05c0.003,0.003,0.004,0.007,0.007,0.009v0.146  l-0.181,0.672c-0.002,0.009,0.005,0.017,0.003,0.025c-0.001,0.01-0.01,0.017-0.011,0.026l-0.026,0.781  c-0.001,0.007,0.007,0.011,0.007,0.019c0,0.007-0.007,0.013-0.005,0.02l0.135,1.011c0.001,0.007,0.007,0.01,0.009,0.017  c0.001,0.006-0.004,0.011-0.003,0.018l0.202,0.7c0,0.001,0.002,0.001,0.002,0.002l0.443,1.586c0.004,0.018,0.021,0.026,0.028,0.041  c0.005,0.012,0.001,0.025,0.009,0.035l0.184,0.246l-0.1,0.645l-0.101,0.18v0.002c0,0.001-0.002,0.001-0.003,0.002l-0.652,1.226  l-0.353,0.462l-0.37,0.233l-2.524-0.235c-0.004,0-0.006,0.003-0.01,0.003s-0.007-0.004-0.011-0.004h-1.856l-1.521-0.091  l-0.422-0.265c-0.02-0.013-0.041-0.005-0.062-0.011c-0.021-0.007-0.037-0.024-0.06-0.024h-0.243c-0.021,0-0.034,0.017-0.053,0.022  c-0.02,0.004-0.039-0.004-0.058,0.006l-0.252,0.139l-0.324,0.115h-0.251l-0.62-0.186l-0.458-0.235l-0.792-0.633  c-0.007-0.006-0.017-0.003-0.024-0.008c-0.007-0.004-0.008-0.015-0.017-0.019l-1.132-0.565c-0.006-0.004-0.013,0.001-0.02-0.002  s-0.008-0.011-0.015-0.013l-1.449-0.448l-0.022-0.031c-0.012-0.018-0.032-0.018-0.048-0.03c-0.014-0.013-0.019-0.033-0.036-0.042  l-0.162-0.081c-0.002-0.001-0.005,0.001-0.007,0c-0.003-0.002-0.003-0.004-0.005-0.006l-0.173-0.073l-0.11-0.066l-0.209-0.156  c-0.02-0.015-0.043-0.009-0.065-0.017c-0.02-0.008-0.032-0.026-0.055-0.028l-0.315-0.024l-0.254-0.097  c-0.008-0.003-0.016,0.003-0.024,0.001c-0.008-0.003-0.011-0.012-0.02-0.013l-0.242-0.04c-0.018-0.004-0.032,0.01-0.049,0.011  c-0.018,0.001-0.032-0.011-0.049-0.007l-0.173,0.046h-0.078l-0.241-0.087l-0.954-0.53c-0.005-0.003-0.012,0.001-0.017-0.002  c-0.006-0.003-0.008-0.011-0.014-0.013l-0.755-0.283c-0.005-0.002-0.01,0.002-0.015,0.001c-0.005-0.002-0.006-0.008-0.011-0.009  l-1.308-0.323c-0.005-0.001-0.008,0.003-0.013,0.002c-0.004-0.001-0.006-0.005-0.01-0.006l-0.931-0.133l-3.238-0.683l-0.7-0.293  l-0.306-0.203c-0.021-0.014-0.045-0.007-0.067-0.014c-0.03-0.009-0.056-0.028-0.088-0.023l-0.832,0.103l-0.415-0.11  c-0.011-0.003-0.02,0.006-0.03,0.004c-0.011-0.001-0.018-0.012-0.028-0.012h-1.024c-0.006,0-0.011,0.007-0.016,0.007  c-0.03,0.002-0.053,0.02-0.08,0.033s-0.054,0.021-0.073,0.043c-0.005,0.005-0.012,0.004-0.016,0.01l-0.121,0.161  c-0.016,0.021-0.01,0.047-0.018,0.071c-0.009,0.023-0.028,0.041-0.028,0.067v0.175c0,0.007,0.007,0.011,0.007,0.017  C21.54,13.619,21.558,13.64,21.571,13.667z M22.878,13.465l0.428,0.113c0.021,0.005,0.04,0.008,0.059,0.008l0,0h0.001l0,0l0,0  c0.01,0,0.019-0.001,0.028-0.002l0.791-0.097l0.253,0.168c0.008,0.005,0.017,0.004,0.025,0.008c0.006,0.003,0.007,0.011,0.013,0.013  l0.741,0.31c0.011,0.005,0.021,0.004,0.032,0.007c0.004,0.001,0.006,0.006,0.01,0.007l3.261,0.687  c0.005,0.002,0.01,0.001,0.014,0.002l0.001,0.001l0.928,0.132l1.286,0.318l0.729,0.273l0.953,0.53  c0.008,0.004,0.016,0.003,0.023,0.006c0.004,0.002,0.006,0.007,0.01,0.009l0.297,0.108c0.025,0.009,0.052,0.014,0.078,0.014h0.117  l0.193,0.054l0.166,0.083l0.161,0.138l0.142,0.142l0.108,0.163l0.081,0.197l0.057,0.192l0.011,0.197l-0.022,0.201l-0.057,0.192  l-0.089,0.18l-0.125,0.175c-0.001,0.001,0,0.004-0.001,0.005c-0.002,0.003-0.005,0.002-0.006,0.004l-0.234,0.365l-0.126,0.151l0,0  l-0.105,0.116l-0.125,0.114l-0.12,0.07l-0.163,0.059l-0.169,0.048l-0.15,0.021h-0.165l-0.165-0.035c0,0,0,0-0.001,0l-0.152-0.035  l-0.141-0.061l-0.142-0.106c-0.001-0.001-0.004,0-0.005-0.001s-0.001-0.002-0.002-0.003l-2.143-1.496  c-0.01-0.007-0.021-0.002-0.031-0.007c-0.003-0.002-0.004-0.006-0.008-0.007l0.318-0.342c0.087-0.093,0.082-0.238-0.012-0.325  c-0.093-0.086-0.239-0.082-0.325,0.012l-0.5,0.537l-0.44,0.077h-0.392c0.056-0.105,0.028-0.236-0.074-0.302l-0.144-0.091  l-0.025-0.019l0.467-0.09c0.036-0.007,0.057-0.035,0.084-0.056c0.016-0.012,0.036-0.008,0.049-0.023l0.067-0.081  c0.006-0.005,0.002-0.013,0.007-0.02c0.007-0.009,0.018-0.014,0.022-0.024l0.054-0.107l0.054-0.108  c0.058-0.113,0.012-0.251-0.103-0.308c-0.114-0.06-0.252-0.013-0.309,0.103l-0.054,0.107l-0.04,0.082l-0.82,0.158l0,0l-1.219,0.226  H26.02l-0.048-0.007l-0.051-0.02l-0.051-0.042l-0.038-0.032l-0.019-0.043c-0.002-0.005-0.009-0.006-0.012-0.011  c-0.003-0.006,0.001-0.012-0.003-0.018l-0.028-0.049l-0.004-0.022l0.01-0.077l0.008-0.062l0.021-0.038l0.011-0.013l0.278-0.086  c0.002-0.001,0.003,0,0.005-0.001l1.132-0.337c0.005-0.002,0.007-0.009,0.013-0.011c0.01-0.003,0.021-0.002,0.029-0.007l0.782-0.418  l0.156-0.078c0.113-0.057,0.16-0.195,0.103-0.309c-0.058-0.115-0.197-0.16-0.309-0.103l-0.161,0.081  c-0.002,0-0.002,0.001-0.003,0.002s-0.002,0-0.003,0.001l-0.76,0.405l-1.001,0.299l-0.636-0.471  c-0.054-0.039-0.118-0.049-0.18-0.037l-0.115-0.231c-0.002-0.003-0.006-0.003-0.008-0.006c-0.001-0.004,0.001-0.008-0.001-0.012  l-0.115-0.187V14.65c0-0.015-0.013-0.023-0.016-0.037c-0.004-0.029-0.016-0.052-0.031-0.077c-0.017-0.026-0.031-0.046-0.058-0.063  c-0.01-0.008-0.013-0.023-0.025-0.029l-1.064-0.513c-0.012-0.005-0.024,0.002-0.037-0.002c-0.012-0.003-0.018-0.017-0.03-0.018  l-1.015-0.146l-0.622-0.211l-0.12-0.089H22.878z M36.271,17.155l1.091,0.546l0.791,0.633c0.008,0.006,0.018,0.004,0.025,0.009  c0.006,0.004,0.007,0.013,0.014,0.016l0.498,0.257c0.01,0.004,0.019,0.003,0.028,0.006c0.005,0.002,0.006,0.008,0.011,0.01  l0.674,0.202c0.022,0.007,0.044,0.01,0.066,0.01h0.313l0.105,0.012c0.001,0,0.002,0,0.003,0l0.102,0.013c0.001,0,0.002,0,0.003,0  c0,0,0,0.001,0.001,0.001l0.095,0.011l0.1,0.033c0.005,0.001,0.01,0.001,0.015,0.002c0.001,0.001,0.002,0.002,0.003,0.002  l0.108,0.027l0.09,0.022l0.1,0.037c0.003,0.001,0.004,0.001,0.006,0.002c0.001,0,0.001,0.001,0.002,0.001l0.11,0.037l0.09,0.045  l0.107,0.054c0.005,0.002,0.01,0.002,0.016,0.003c0.002,0.002,0.003,0.006,0.006,0.007l0.081,0.03l0.062,0.045l0.358,0.281  l0.282,0.319l0.225,0.374l0.318,0.688l0,0l0.114,0.255l0.07,0.258l0.023,0.276v0.277l-0.035,0.276l-0.072,0.263l-0.108,0.242  l-0.147,0.232l-0.169,0.217l-0.196,0.197l-0.159,0.114l-0.621-0.045l-1.518-0.837l0,0l-1.159-0.646c0,0,0,0-0.001,0l-0.401-0.229  c-0.007-0.004-0.014,0.001-0.021-0.003c-0.007-0.003-0.009-0.011-0.016-0.014c-0.001,0-0.001,0-0.003,0c0,0,0-0.001-0.001-0.001  l-2.089-0.71l-1.686-0.836l-0.633-0.397l0.239-0.13c0.004-0.002,0.004-0.008,0.008-0.011c0.005-0.002,0.011-0.001,0.016-0.005  l0.282-0.202c0.005-0.003,0.004-0.008,0.007-0.011c0.004-0.003,0.01-0.001,0.014-0.005l0.256-0.229  c0.004-0.004,0.003-0.012,0.007-0.017c0.005-0.004,0.011-0.002,0.015-0.006l0.229-0.27c0.004-0.005,0.002-0.011,0.005-0.016  c0.003-0.004,0.009-0.002,0.012-0.006l0.188-0.283c0.002-0.004,0-0.008,0.002-0.011c0.003-0.005,0.008-0.006,0.01-0.011l0.162-0.31  c0.001-0.003-0.001-0.006,0.001-0.009s0.006-0.005,0.008-0.009l0.067-0.162c0.002-0.004-0.002-0.01,0-0.014  c0.002-0.006,0.008-0.009,0.009-0.014l0.041-0.148l0.04-0.148c0.001-0.004-0.002-0.006-0.001-0.01s0.005-0.006,0.006-0.01  l0.026-0.148c0.001-0.004-0.003-0.007-0.002-0.012c0.001-0.004,0.005-0.006,0.005-0.01l0.014-0.162  c0.001-0.008-0.006-0.013-0.006-0.02c0-0.008,0.007-0.013,0.006-0.021l-0.013-0.136v-0.153c0-0.008-0.008-0.013-0.008-0.021  c-0.001-0.007,0.006-0.013,0.004-0.021l-0.013-0.069l0.07-0.132c0.01-0.018,0.001-0.036,0.006-0.055L36.271,17.155z M42.73,18.95  c0.005,0,0.01,0,0.014,0h1.851l2.575,0.24l0.778,0.172l0,0l2.983,0.692l0.69,0.427l-0.393,0.269l-1.963-0.475c0,0,0,0-0.001,0  c0,0,0,0-0.001,0l-1.051-0.243c-0.008-0.001-0.015,0.005-0.021,0.004c-0.008-0.001-0.013-0.009-0.021-0.009L47.574,20l-0.591-0.055  l-0.579-0.065l-0.605-0.094l0,0l-0.58-0.106l-0.576-0.133l0,0l-0.583-0.146v-0.001l-0.58-0.162l0,0l-0.551-0.17  c-0.001,0-0.001,0-0.001,0l-0.37-0.13L42.73,18.95z M47.859,18.805l0.392-0.512c0.003-0.004,0.001-0.01,0.003-0.014  c0.005-0.007,0.013-0.011,0.017-0.018l0.661-1.24l0,0l0.118-0.211c0.007-0.012,0-0.025,0.005-0.037  c0.005-0.015,0.02-0.023,0.022-0.04l0.083-0.539l0.299,0.067c0.001,0,0.002,0,0.002,0l1.231,0.273l0.068,1.036l-0.049,0.002  c-0.002,0-0.004,0.002-0.006,0.003c-0.003,0-0.004-0.002-0.007-0.002l-0.27,0.026c-0.004,0.001-0.006,0.005-0.01,0.006  c-0.004,0-0.006-0.003-0.01-0.002l-0.283,0.054c-0.004,0-0.005,0.005-0.009,0.006s-0.008-0.003-0.012-0.002l-0.283,0.081  c0,0,0,0.001-0.001,0.001c0,0-0.001,0-0.002,0l-0.27,0.081c-0.005,0.002-0.007,0.008-0.012,0.01s-0.01-0.002-0.015,0.001  l-0.243,0.107c-0.001,0.001-0.002,0.003-0.004,0.004c-0.001,0.001-0.004-0.001-0.005,0.001l-0.27,0.135  c-0.002,0.001-0.002,0.002-0.004,0.004c-0.002,0-0.004-0.001-0.006,0l-0.242,0.135c-0.003,0.001-0.003,0.005-0.005,0.006  c-0.003,0.002-0.006,0-0.009,0.002l-0.229,0.148c-0.003,0.002-0.003,0.006-0.006,0.009c-0.003,0.001-0.006,0-0.009,0.002  l-0.229,0.175c-0.002,0.002-0.002,0.006-0.004,0.007c-0.002,0.003-0.006,0.001-0.008,0.003l-0.216,0.188  c-0.003,0.003-0.002,0.009-0.006,0.012c-0.002,0.003-0.008,0.002-0.01,0.005l-0.1,0.106l-0.121-0.027  c0.014-0.009,0.016-0.025,0.026-0.036C47.836,18.812,47.852,18.816,47.859,18.805z M48.924,5.932l0.961-0.55l1.427-0.233  l1.563-0.105l0.734,0.168c0.018,0.004,0.034,0.006,0.051,0.006c0.003,0,0.005,0,0.007,0l0.908-0.025l1.009,0.41L56.9,6.801  l1.349,1.768l0.262,0.936v0.698c0,0.011,0.01,0.018,0.012,0.027c0.001,0.011-0.007,0.02-0.004,0.029l0.215,0.849  c0.003,0.013,0.015,0.018,0.019,0.028c0.004,0.009-0.001,0.018,0.003,0.026l0.441,0.805l0.137,0.645v0.528  c0,0.002,0.001,0.002,0.001,0.004c0.001,0.026,0.021,0.048,0.03,0.073c0.013,0.03,0.016,0.064,0.039,0.087  c0.001,0.001,0.001,0.003,0.001,0.003l0.257,0.244l0.225,0.415v0.266c0,0.009,0.008,0.015,0.009,0.023  c0.002,0.009-0.006,0.016-0.004,0.025l0.081,0.377c0.004,0.016,0.018,0.024,0.023,0.038c0.006,0.012,0,0.024,0.007,0.036  l0.261,0.415v0.5c0,0.005,0.005,0.007,0.005,0.012c0.001,0.029,0.02,0.052,0.033,0.079c0.013,0.027,0.019,0.057,0.041,0.077  c0.003,0.002,0.002,0.008,0.005,0.01l0.313,0.258l0.038,0.201c0.002,0.009,0.011,0.013,0.014,0.021c0.002,0.008-0.003,0.014,0,0.021  l0.175,0.432c0.006,0.016,0.021,0.023,0.03,0.037c0.006,0.009,0.003,0.02,0.01,0.027l0.414,0.474v0.265  c0,0.018,0.015,0.028,0.019,0.044c0.003,0.016-0.006,0.031,0.001,0.047l0.479,1.114v0.426c0,0.059,0.022,0.117,0.067,0.162  l0.385,0.385c-0.026,0.013-0.057,0.015-0.076,0.034c-0.001,0.001-0.002,0.001-0.004,0.002c-0.019,0.021-0.017,0.048-0.026,0.072  c-0.014,0.028-0.036,0.052-0.036,0.086c0,0.001,0.002,0.002,0.002,0.004c0,0.026,0.021,0.048,0.03,0.073  c0.013,0.03,0.017,0.064,0.039,0.087c0.001,0.001,0,0.002,0.001,0.003l0.011,0.01l-0.196-0.015l-0.347-0.063l-0.316-0.098  l-0.309-0.147l-0.302-0.171l-0.273-0.199l-0.252-0.227l-0.239-0.252l-0.197-0.283l-0.167-0.297l-0.144-0.323  c-0.005-0.012-0.018-0.014-0.024-0.024c-0.016-0.025-0.036-0.04-0.061-0.058s-0.046-0.032-0.074-0.039  c-0.012-0.003-0.019-0.015-0.031-0.016l-0.472-0.041c-0.007-0.001-0.01,0.006-0.017,0.006c-0.007-0.001-0.01-0.007-0.016-0.006  l-0.472,0.026c-0.003,0-0.004,0.003-0.007,0.003c-0.003,0.001-0.004-0.002-0.007-0.001l-0.472,0.054  c-0.007,0-0.009,0.007-0.015,0.008s-0.011-0.004-0.017-0.002l-0.472,0.121c-0.004,0.001-0.005,0.005-0.009,0.007  c-0.003,0.001-0.007-0.002-0.01-0.001l-0.059,0.021l-0.938-1.441l-0.138-0.377l-0.135-0.403c0,0-0.001,0-0.001-0.001l-0.116-0.388  l0,0l-0.106-0.41l-0.079-0.424c0,0,0,0,0-0.001l0,0l-0.074-0.38c0.006-0.006,0.004-0.016,0.01-0.022  c0.005-0.006,0.015-0.004,0.02-0.01l0.094-0.148c0.004-0.007,0-0.014,0.004-0.02c0.004-0.009,0.014-0.013,0.017-0.021l0.067-0.176  c0.005-0.011-0.003-0.021-0.001-0.033c0.003-0.012,0.015-0.019,0.016-0.031l0.014-0.176c0.001-0.013-0.011-0.021-0.012-0.033  c0-0.013,0.01-0.023,0.007-0.035l-0.041-0.176c-0.001-0.007-0.01-0.01-0.012-0.017s0.003-0.014,0-0.021l-0.067-0.161  c-0.006-0.014-0.021-0.018-0.028-0.029c-0.008-0.011-0.004-0.026-0.013-0.036l-0.122-0.135c-0.008-0.009-0.02-0.007-0.027-0.014  c-0.01-0.008-0.01-0.021-0.02-0.027l-0.148-0.094c-0.006-0.004-0.014,0-0.021-0.004c-0.006-0.003-0.007-0.012-0.014-0.015  l-0.055-0.022l0.059-0.449c0.001-0.007-0.005-0.012-0.005-0.019c0.001-0.006,0.007-0.01,0.007-0.017L55.386,11.8  c0-0.007-0.007-0.012-0.008-0.019c-0.003-0.028-0.02-0.05-0.033-0.075c-0.015-0.028-0.024-0.054-0.049-0.073  c-0.006-0.006-0.006-0.014-0.012-0.019l-0.2-0.133l0,0l-0.202-0.14l-0.176-0.162l-0.176-0.164l-0.151-0.189l0,0l-0.138-0.188v-0.001  l-0.138-0.2l-0.099-0.221c0-0.001-0.001-0.001-0.001-0.002c-0.001,0,0-0.001,0-0.003l-0.103-0.215l-0.076-0.23l-0.061-0.232  l-0.039-0.232c-0.001-0.007-0.009-0.009-0.01-0.016c-0.007-0.029-0.027-0.049-0.046-0.073s-0.031-0.05-0.058-0.065  c-0.005-0.003-0.005-0.011-0.011-0.014l-0.363-0.181l-0.345-0.23l-0.34-0.248L52.26,8.194l-0.265-0.289l-0.248-0.34l-0.22-0.349  l-0.174-0.349l-0.146-0.396c-0.003-0.009-0.014-0.011-0.018-0.019c-0.013-0.026-0.033-0.041-0.056-0.062  c-0.023-0.021-0.042-0.04-0.071-0.05c-0.008-0.003-0.012-0.013-0.021-0.015l-0.296-0.067c-0.006-0.001-0.01,0.003-0.016,0.003  c-0.006-0.001-0.009-0.008-0.014-0.008l-0.283-0.027c-0.007-0.001-0.011,0.005-0.018,0.006c-0.006-0.001-0.009-0.007-0.015-0.007  L50.119,6.24c-0.006,0.001-0.009,0.007-0.015,0.007c-0.006,0.001-0.011-0.004-0.016-0.003l-0.297,0.054  c-0.007,0.001-0.01,0.009-0.016,0.01c-0.006,0.002-0.013-0.003-0.02-0.001l-0.27,0.095c-0.004,0.001-0.005,0.007-0.01,0.009  c-0.004,0.002-0.009-0.002-0.013,0l-0.256,0.122c-0.006,0.003-0.006,0.009-0.012,0.013c-0.006,0.003-0.013,0-0.018,0.003  l-0.242,0.162c-0.004,0.003-0.004,0.008-0.007,0.011c-0.004,0.002-0.009,0-0.012,0.003l-0.229,0.189  c-0.008,0.006-0.006,0.017-0.013,0.023s-0.018,0.006-0.023,0.014l-0.175,0.229c-0.002,0.002-0.001,0.005-0.003,0.008  c0,0.001-0.002,0-0.003,0.001V6.793c0-0.012-0.011-0.019-0.012-0.029c-0.004-0.03-0.018-0.052-0.032-0.078  c-0.012-0.02-0.014-0.043-0.03-0.059L48.924,5.932z M55.584,20.434l0.259,0.154l-0.897,0.267l-0.218-0.047L55.584,20.434z   M73.417,48.29l0.466,0.518l0.35,0.52l0.234,0.409v0.285l-0.2,0.366c-0.01,0.018-0.002,0.037-0.006,0.057  c-0.006,0.019-0.022,0.032-0.022,0.054v0.243c0,0.018,0.015,0.029,0.019,0.045c0.003,0.016-0.006,0.031,0.001,0.047l0.169,0.387  v0.15l-0.038,0.029h-0.244c-0.127,0-0.23,0.104-0.23,0.23v0.244c0,0.027,0.021,0.047,0.031,0.074  c0.009,0.023,0.005,0.051,0.022,0.072l0.584,0.701l0.091,0.221v0.148l-0.1,0.088h-0.126l-0.266-0.072  c-0.007-0.002-0.013,0.004-0.019,0.002l-0.653-0.861c-0.004-0.006-0.01-0.004-0.015-0.01c-0.021-0.023-0.049-0.033-0.079-0.045  c-0.027-0.014-0.05-0.029-0.079-0.029c-0.007-0.002-0.011-0.008-0.018-0.008c-0.024,0-0.04,0.02-0.062,0.027  c-0.023,0.008-0.05,0.002-0.07,0.02c-0.007,0.004-0.005,0.012-0.011,0.018c-0.022,0.02-0.03,0.047-0.043,0.072  c-0.014,0.029-0.029,0.051-0.03,0.082c0,0.006-0.007,0.01-0.007,0.018l0.013,0.445c0.001,0.02,0.018,0.031,0.022,0.051  c0.005,0.018-0.004,0.035,0.006,0.053l1.239,2.252l0.08,0.295v0.141l-0.016,0.021l-0.494-0.438l-1.37-2.182  c-0.004-0.006-0.013-0.006-0.018-0.012s-0.002-0.016-0.008-0.021l-0.913-0.992l-0.467-0.562c-0.082-0.096-0.228-0.109-0.324-0.029  c-0.037,0.031-0.05,0.074-0.062,0.117l-0.138-0.371l-0.497-1.676l0.087-0.609c0.003-0.02-0.012-0.034-0.014-0.052  c-0.001-0.019,0.01-0.036,0.004-0.055l-0.433-1.284v-0.274c0.048-0.07,0.069-0.155,0.024-0.233v-0.001l0.034-0.093l0.107-0.167  c0.002-0.002,0-0.005,0.001-0.007s0.004-0.002,0.005-0.003l0.097-0.169l0.136-0.16c0-0.001,0-0.001,0-0.001  c0-0.001,0.001-0.001,0.001-0.001l0.118-0.142l0.155-0.119c0.002-0.001,0.001-0.004,0.003-0.005c0.002-0.002,0.004,0,0.006-0.002  l0.162-0.138l0.158-0.098l0.167-0.089l0.079-0.02c0.051-0.013,0.085-0.048,0.115-0.086c0.006-0.006,0.017-0.004,0.021-0.011  l0.116-0.176l0.351,0.516c0.002,0.002,0.003,0.001,0.004,0.002c0.002,0.002,0.001,0.005,0.002,0.006l0.431,0.58h0.001l0.18,0.265  l0.206,0.554c0.011,0.027,0.033,0.045,0.052,0.066c0.007,0.008,0.006,0.02,0.014,0.027L73.417,48.29z M71.206,53.195l-0.017-0.076  c-0.003-0.018-0.02-0.025-0.026-0.039c-0.006-0.016,0-0.031-0.009-0.043l-0.166-0.244l-0.037-0.703c0-0.016-0.012-0.023-0.015-0.035  s0.005-0.021,0.001-0.033l-0.069-0.189l0.338,0.406V53.195z M71.001,45.063l-0.18,0.274l-0.021,0.005  c-0.01,0.003-0.014,0.014-0.023,0.018c-0.01,0.003-0.02-0.003-0.029,0.003l-0.202,0.107c-0.002,0.001-0.002,0.004-0.005,0.006  c-0.002,0.001-0.005-0.001-0.008,0.001l-0.175,0.107c-0.006,0.004-0.006,0.011-0.011,0.015s-0.013,0.002-0.018,0.006l-0.172,0.146  l-0.17,0.131c-0.008,0.006-0.007,0.017-0.014,0.023c-0.007,0.006-0.017,0.005-0.022,0.012l-0.134,0.159c0,0.001,0,0.001,0,0.001  l-0.148,0.175c-0.005,0.007-0.002,0.016-0.007,0.021c-0.004,0.007-0.014,0.007-0.018,0.014l-0.104,0.185l-0.118,0.183  c-0.005,0.008-0.001,0.017-0.005,0.024c-0.003,0.008-0.012,0.01-0.015,0.017l-0.036-0.021l-0.043-0.042l-0.047-0.075  c0-0.001,0-0.001,0-0.001l-0.037-0.064l-0.018-0.08l-0.008-0.066l0.007-0.064l0.025-0.066l0.039-0.069l0.06-0.082  c0.009-0.013,0.003-0.028,0.009-0.041c0.01-0.019,0.026-0.03,0.03-0.051l0.037-0.197l0.062-0.172l0,0l0.077-0.194l0,0l0.07-0.165  l0.093-0.149l0.113-0.137l0.151-0.139c0.001-0.001,0-0.003,0.002-0.004c0.002-0.002,0.004-0.001,0.005-0.002l0.135-0.135l0.15-0.104  l0.166-0.103l0.144-0.071l0.246,0.398L71.001,45.063z M69.133,41.635l0.288,0.63c0.001,0.002,0.003,0.002,0.004,0.003  c0,0.002-0.001,0.003,0,0.004l0.323,0.646c0.001,0.003,0.003,0.003,0.005,0.005c0.001,0.002-0.001,0.004,0,0.006l0.351,0.62  c0,0.001,0.001,0,0.001,0.001l0.251,0.452l-0.127,0.063c-0.004,0.002-0.004,0.006-0.007,0.008c-0.004,0.002-0.008-0.001-0.012,0.002  l-0.175,0.107c-0.002,0.001-0.002,0.004-0.004,0.006c-0.002,0.001-0.005,0-0.007,0.001l-0.175,0.121  c-0.006,0.005-0.006,0.013-0.012,0.019c-0.006,0.005-0.015,0.003-0.021,0.008l-0.147,0.147l-0.155,0.143  c-0.004,0.004-0.003,0.011-0.007,0.015c-0.004,0.005-0.01,0.003-0.014,0.008l-0.135,0.162c-0.005,0.004-0.002,0.011-0.006,0.016  s-0.011,0.005-0.014,0.011l-0.039,0.062l-0.022-0.162c0-0.004-0.004-0.005-0.005-0.009c0-0.004,0.002-0.007,0.002-0.01l-0.08-0.361  v-0.001l-0.082-0.377c0-0.003-0.003-0.004-0.004-0.007s0.002-0.006,0.001-0.009l-0.108-0.377c-0.001-0.004-0.005-0.005-0.006-0.008  s0.002-0.006,0.001-0.009l-0.135-0.364c-0.002-0.003-0.006-0.004-0.007-0.007s0.001-0.006,0-0.01l-0.162-0.351l0,0l-0.16-0.36  c-0.001-0.003-0.005-0.003-0.007-0.007c-0.002-0.003,0-0.007-0.001-0.01L68.35,42.14c0-0.001-0.002-0.001-0.003-0.002  c0-0.001,0-0.003,0-0.004l-0.09-0.153l-0.68-1.413l-0.091-0.233l0,0l-0.09-0.242l-0.08-0.257l-0.061-0.24l-0.04-0.252l0,0  l-0.04-0.267l-0.024-0.23V38.64L69.133,41.635z M66.772,38.084l-0.088-0.113c-0.001-0.002-0.005-0.001-0.007-0.004  c-0.001-0.002,0-0.005-0.002-0.008l-0.094-0.104l-0.07-0.117c-0.001-0.003-0.005-0.002-0.007-0.005  c-0.001-0.002,0-0.006-0.001-0.009l-0.095-0.135c0,0,0,0-0.001,0l-0.067-0.102l-0.059-0.131c-0.001-0.001-0.003-0.001-0.004-0.003  s0-0.003-0.001-0.005l-0.061-0.12v-0.001l0.599,0.905L66.772,38.084z M64.891,35.25L64.891,35.25l0.26,0.442l0.53,1.407l0,0  l0.054,0.147l0.055,0.148c0.001,0.006,0.007,0.008,0.009,0.013c0.003,0.004,0,0.008,0.002,0.012l0.063,0.127l0.067,0.148  c0.003,0.007,0.01,0.01,0.015,0.017c0.002,0.005,0,0.011,0.003,0.016l0.081,0.121c0,0.001,0.001,0.001,0.002,0.001  c0.001,0.001,0,0.003,0.001,0.004l0.092,0.131l0.074,0.125c0.004,0.006,0.013,0.004,0.018,0.01c0.005,0.007,0.002,0.018,0.008,0.024  l0.105,0.118l0.088,0.112c0.001,0.003,0.005,0.001,0.006,0.004c0.002,0.002,0.001,0.006,0.003,0.008l0.107,0.12l0,0l0.094,0.108  c0.002,0.002,0.005,0.001,0.007,0.003c0.002,0.003,0.001,0.006,0.003,0.008l0.055,0.055v0.174c0,0.005,0.005,0.008,0.005,0.012  c0,0.005-0.004,0.008-0.004,0.013l0.027,0.256c0,0.001,0.002,0.003,0.002,0.005c0.001,0.002-0.001,0.003-0.001,0.005l0.041,0.27  v0.001c0,0,0,0,0,0.001l0.04,0.256c0.001,0.005,0.005,0.006,0.006,0.011c0.001,0.003-0.002,0.006-0.001,0.009l0.067,0.27  c0,0.003,0.003,0.004,0.004,0.006c0,0.003-0.002,0.005-0.001,0.008l0.081,0.256c0,0.002,0.003,0.004,0.004,0.006  c0,0.002-0.001,0.003,0,0.005l0.094,0.256c0,0.001,0.002,0.001,0.002,0.002s0,0.001,0,0.002l0.094,0.242  c0.001,0.004,0.005,0.005,0.007,0.009c0.001,0.003,0,0.005,0.001,0.008l0.687,1.429c0.002,0.004,0.006,0.005,0.008,0.009  c0.001,0.002,0,0.005,0.001,0.007l0.094,0.161l0.169,0.312l0.157,0.354c0,0,0.001,0,0.001,0.001v0.002l0.16,0.345l0.125,0.342  l0.104,0.362l0.08,0.372l0,0c0,0.001,0,0.001,0,0.002l0.079,0.354l0.051,0.373l0.026,0.371l0,0l0.021,0.309l-0.019,0.027  c-0.003,0.003-0.001,0.008-0.003,0.012s-0.008,0.004-0.01,0.008l-0.055,0.094c-0.003,0.007,0.001,0.014-0.002,0.02  s-0.011,0.007-0.014,0.014l-0.04,0.108c-0.004,0.011,0.003,0.021,0.001,0.031c-0.002,0.01-0.013,0.014-0.014,0.024l-0.014,0.121  c-0.001,0.01,0.008,0.018,0.008,0.026c0,0.011-0.009,0.018-0.008,0.027l0.014,0.107c0.001,0.004,0.005,0.007,0.006,0.011  s-0.004,0.007-0.002,0.011l0.026,0.121c0.004,0.014,0.016,0.021,0.021,0.033c0.004,0.011-0.002,0.021,0.004,0.031l0.054,0.095  c0.001,0.001,0.003,0,0.004,0.002s0,0.004,0.001,0.006L68.95,46.9c0.005,0.007,0.015,0.005,0.02,0.011  c0.007,0.01,0.004,0.021,0.013,0.03l0.08,0.081c0.009,0.008,0.021,0.006,0.03,0.012c0.009,0.007,0.01,0.02,0.02,0.025l0.094,0.054  c0.008,0.004,0.016,0.003,0.023,0.006c0.004,0.002,0.005,0.008,0.01,0.01l0.066,0.024v0.366c0,0.015,0.013,0.022,0.015,0.036  c0.002,0.013-0.007,0.024-0.002,0.038l0.427,1.269l-0.086,0.605c-0.003,0.018,0.01,0.031,0.012,0.048  c0.001,0.018-0.011,0.033-0.006,0.051l0.513,1.725c0.001,0.004,0.004,0.004,0.005,0.008c0.001,0.002-0.001,0.004,0,0.006  l0.312,0.844l0.038,0.732c0.001,0.025,0.02,0.041,0.028,0.062c0.006,0.018,0,0.039,0.012,0.057l0.177,0.258l0.206,0.967  c0.004,0.021,0.022,0.035,0.033,0.053c0.006,0.014,0.002,0.029,0.012,0.041c0.005,0.008,0.014,0.004,0.019,0.01  c0.043,0.047,0.097,0.078,0.161,0.078c0.009,0,0.018-0.002,0.026-0.002v0.271l-1.948,8.248c-0.001,0.004,0.003,0.008,0.002,0.014  c0,0.004-0.005,0.006-0.006,0.01l-1.968,15.756c-0.003,0.021,0.013,0.037,0.017,0.059c0.004,0.031,0.007,0.057,0.022,0.084  c0.016,0.025,0.037,0.039,0.062,0.057c0.017,0.014,0.024,0.035,0.046,0.043l7.127,2.711l-3.957,1.18  c-0.007,0.002-0.008,0.01-0.014,0.012s-0.012-0.002-0.017,0l-3.747,1.725c-0.014,0.008-0.017,0.023-0.028,0.031  c-0.025,0.018-0.041,0.037-0.058,0.062s-0.026,0.047-0.032,0.078c-0.003,0.014-0.016,0.023-0.016,0.037v0.729  c0,0.008,0.008,0.012,0.008,0.02c0.001,0.008-0.006,0.014-0.004,0.021c0.005,0.031,0.028,0.053,0.045,0.078  c0.011,0.016,0.014,0.035,0.028,0.047c0.042,0.039,0.095,0.064,0.152,0.064c0.014,0,0.028-0.002,0.042-0.004l6.424-1.182  c-0.012,0.014-0.021,0.023-0.03,0.039c-0.004,0.006-0.012,0.006-0.014,0.012l-0.157,0.346l-0.861,0.221h-0.443  c-0.008,0-0.013,0.008-0.02,0.008c-0.008,0-0.014-0.006-0.021-0.004l-1.806,0.322c-0.004,0.002-0.006,0.006-0.01,0.008  c-0.005,0-0.009-0.002-0.013-0.002l-0.378,0.107c-0.02,0.006-0.028,0.027-0.045,0.037c-0.026,0.016-0.049,0.027-0.066,0.053  c-0.019,0.023-0.024,0.049-0.033,0.078c-0.005,0.02-0.022,0.033-0.022,0.055v0.242c0,0.031,0.022,0.053,0.033,0.08  c0.01,0.023,0.007,0.051,0.025,0.072l0.157,0.178v0.059h-0.066c-0.012,0-0.019,0.012-0.03,0.014c-0.012,0-0.021-0.008-0.033-0.004  l-0.354,0.102l-0.718,0.051l-0.001,0.002l-2.485,0.135l-0.017-0.361l0,0l-0.074-2.291l1.072-0.266  c0.026-0.006,0.039-0.029,0.061-0.045c0.025-0.016,0.052-0.025,0.069-0.051c0.017-0.023,0.017-0.053,0.023-0.082  c0.006-0.025,0.023-0.045,0.02-0.072l-0.054-0.445l-0.902-7.453l0,0l0,0l-1.321-10.736l2.559-0.424c0.001,0,0.001,0,0.001,0  c0.002,0,0.004,0,0.006,0c0.032-0.006,0.049-0.033,0.074-0.049c0.023-0.018,0.053-0.023,0.069-0.047  c0.018-0.025,0.015-0.061,0.021-0.09c0.006-0.027,0.022-0.051,0.019-0.078c0-0.002-0.002-0.002-0.003-0.004  c0,0,0.002-0.002,0.002-0.004l-1.426-7.152l0.854-0.561c0.014-0.01,0.014-0.027,0.024-0.037c0.022-0.021,0.035-0.041,0.048-0.07  c0.012-0.027,0.018-0.051,0.019-0.082c0.001-0.014,0.013-0.027,0.01-0.043l-1.833-10.498c-0.003-0.017-0.019-0.024-0.024-0.039  c-0.005-0.014,0.001-0.028-0.007-0.042l-1.194-1.95l1.001-0.544c0.007-0.004,0.007-0.014,0.014-0.018  c0.008-0.005,0.018-0.003,0.025-0.009c0.018-0.017,0.018-0.04,0.03-0.06c0.017-0.025,0.033-0.046,0.038-0.076  c0.007-0.029-0.002-0.055-0.009-0.084c-0.004-0.022,0.005-0.045-0.007-0.066c-0.004-0.008-0.014-0.008-0.019-0.016  c-0.005-0.007-0.002-0.017-0.008-0.023l-4.567-5.394v-1.391l1.4-4.415l1.034,0.566c0.034,0.019,0.07,0.026,0.105,0.027L64.891,35.25  z M76.948,83.932c-0.127,0-0.23,0.104-0.23,0.23v0.094h-1.694l2.085-0.383v0.059H76.948z M69.28,88.586l1.101,2.215h0.001  l0.083,0.166v0.127l-0.04-0.004c-0.004,0-0.006,0.002-0.01,0.002c-0.003,0-0.005-0.004-0.008-0.004l-0.351-0.014  c-0.006,0-0.008,0.006-0.014,0.006c-0.005,0-0.007-0.006-0.012-0.004l-0.364,0.025l0,0l0,0l-0.351,0.027  c-0.004,0-0.005,0.004-0.008,0.004c-0.004,0.002-0.007-0.002-0.01-0.002l-0.351,0.055c-0.003,0-0.004,0.004-0.008,0.004  c-0.003,0.002-0.006-0.002-0.009-0.002l-0.351,0.082c-0.003,0-0.004,0.004-0.008,0.006c-0.004,0-0.007-0.002-0.011-0.002  l-0.337,0.109c-0.002,0-0.002,0.002-0.003,0.002c-0.002,0-0.003,0-0.005,0l-0.337,0.121c-0.003,0.002-0.004,0.006-0.007,0.008  c-0.004,0-0.008-0.002-0.011,0l-0.323,0.148c-0.003,0-0.003,0.004-0.005,0.004c-0.002,0.002-0.004,0-0.006,0l-0.31,0.162  c-0.003,0.002-0.003,0.004-0.005,0.006c-0.003,0.002-0.006,0-0.009,0.002l-0.277,0.168l-0.188-0.73  c-0.002-0.006-0.01-0.008-0.012-0.016c-0.003-0.006,0.002-0.012-0.001-0.018l-1.132-2.588c-0.002-0.004-0.008-0.006-0.01-0.01  s0.001-0.008-0.002-0.014l-0.472-0.822c-0.002-0.004-0.007-0.004-0.009-0.006c-0.003-0.004,0-0.01-0.003-0.012l-0.067-0.096  l-0.054-0.074l-0.045-0.1c-0.003-0.008-0.013-0.01-0.018-0.018c-0.004-0.008,0-0.016-0.005-0.023l-0.058-0.08l-0.038-0.076  l-0.038-0.102l-0.038-0.104L64.7,87c0-0.002-0.002-0.002-0.003-0.004c0-0.002,0.001-0.002,0-0.004l-0.037-0.1l-0.02-0.08l0,0  l-0.001-0.006l0.892-0.131l0.015,0.34c0,0.002,0.001,0.002,0.001,0.002h-0.001c0.003,0.039,0.026,0.066,0.045,0.098  c0.011,0.018,0.012,0.043,0.026,0.057c0.042,0.039,0.098,0.064,0.158,0.064c0.004,0,0.009-0.002,0.013-0.002l2.585-0.141  L69.28,88.586z M70.36,94.559l-1.434,0.234h-1.245l-0.676-0.113l-0.203-0.068l-0.163-0.205v-0.117l0.457-0.232l0.004,0.004  l0.045,0.057c0.011,0.012,0.028,0.01,0.04,0.02c0.015,0.012,0.019,0.033,0.037,0.041l0.058,0.029l0.05,0.039  c0.008,0.008,0.018,0.006,0.027,0.01c0.006,0.004,0.007,0.014,0.014,0.018l0.081,0.039c0.007,0.004,0.014,0.004,0.021,0.006  c0.004,0.002,0.005,0.006,0.009,0.008l0.081,0.027l0.081,0.027c0.002,0,0.005,0,0.008,0c0.001,0,0.001,0.002,0.002,0.002  l0.086,0.025l0.079,0.025c0.024,0.008,0.049,0.012,0.073,0.012h0.081h0.094h0.176c0.006,0,0.012,0,0.018,0l0.175-0.014  c0.001,0,0.001-0.002,0.001-0.002c0.005,0,0.011,0,0.017,0l0.175-0.027c0.001,0,0.002-0.002,0.003-0.002c0.005,0,0.01,0,0.015-0.002  l0.175-0.039c0.002-0.002,0.002-0.002,0.003-0.004c0.005,0,0.009,0,0.013-0.002l0.046-0.014l0.043,0.021l0.062,0.037  c0.006,0.004,0.014,0.004,0.02,0.006c0.006,0.004,0.006,0.014,0.012,0.016c0.018,0.012,0.038,0.012,0.058,0.018  c0.01,0.004,0.015,0.016,0.024,0.018l0.049,0.01l0.046,0.018c0.01,0.004,0.021,0.004,0.031,0.006  c0.004,0.002,0.005,0.006,0.009,0.008l0.067,0.012c0.016,0.004,0.03,0.006,0.045,0.006c0.011,0,0.019-0.01,0.028-0.01  c0.009,0,0.017,0.01,0.026,0.01s0.016-0.01,0.025-0.012c0.01,0.002,0.018,0.012,0.028,0.012h0.081c0.015,0,0.024-0.014,0.039-0.018  c0.003,0,0.006,0.004,0.009,0.004c0.001,0,0.003,0,0.004,0s0.001,0,0.002,0c0.003,0,0.006-0.002,0.008-0.002  c0.017,0,0.032-0.002,0.048-0.006c0.003,0,0.004-0.004,0.007-0.004c0.008-0.004,0.015-0.002,0.022-0.006l0.061-0.023l0.288-0.092  c0.004-0.002,0.005-0.006,0.009-0.008c0.008-0.002,0.017-0.002,0.024-0.006l0.296-0.148c0.005-0.002,0.005-0.008,0.009-0.01  c0.006-0.004,0.013-0.002,0.019-0.006l0.256-0.176c0.004-0.002,0.003-0.006,0.006-0.008c0.004-0.004,0.01-0.002,0.013-0.006  l0.121-0.102l0.023,0.016l0.148,0.111l0.029,0.029l-0.049,0.119l-0.197,0.229L70.36,94.559z M67.927,93.633l0.143-0.01h0.001  l0.334-0.014l0.365,0.014l0.169,0.014c0.006,0,0.012,0,0.018,0h1.324l0.043,0.016l0.018,0.006l-0.208,0.143l-0.266,0.135  l-0.279,0.088c-0.004,0.002-0.004,0.004-0.007,0.006c-0.004,0-0.007-0.002-0.01,0l-0.053,0.021l-0.009,0.002h-0.055h-0.054h-0.032  l-0.025-0.006l-0.046-0.018c-0.008-0.004-0.015,0.002-0.021,0c-0.008-0.002-0.012-0.012-0.02-0.012l-0.022-0.006l-0.002-0.002  c-0.002,0-0.004,0-0.006,0c-0.002-0.002-0.002-0.004-0.004-0.004l-0.067-0.041c-0.003-0.002-0.007,0-0.009-0.002  c-0.003-0.002-0.004-0.006-0.007-0.006l-0.004-0.004l-0.009-0.01c-0.011-0.016-0.03-0.016-0.044-0.027  c-0.024-0.021-0.045-0.033-0.075-0.043c-0.028-0.01-0.052-0.01-0.082-0.008c-0.018,0.002-0.033-0.01-0.051-0.004l-0.163,0.051  l-0.161,0.037l-0.164,0.025l-0.147,0.01h-0.173h-0.094H67.93l-0.046-0.014c-0.002-0.002-0.003,0-0.006,0  c-0.001,0-0.002-0.002-0.004-0.004l-0.086-0.023l-0.079-0.027l-0.069-0.023l-0.04-0.02l-0.05-0.039c-0.003-0.002-0.007,0-0.01-0.004  L67.927,93.633z M70.893,93.42c-0.004-0.002-0.009,0-0.013-0.002c-0.004-0.004-0.004-0.01-0.009-0.012l-0.175-0.094  c-0.004-0.002-0.008,0-0.012-0.002c-0.003-0.002-0.004-0.006-0.007-0.008l-0.165-0.07h0.088c0.019,0,0.037-0.002,0.056-0.008  l0.107-0.025c0.004-0.002,0.005-0.006,0.009-0.006c0.009-0.004,0.018-0.002,0.026-0.006l0.094-0.041  c0.01-0.004,0.012-0.016,0.021-0.021c0.011-0.006,0.025-0.004,0.035-0.014l0.044-0.035l0.023,0.072v0.357L70.893,93.42z   M70.454,92.135l0.08,0.057l0.083,0.061l0.069,0.059l0.034,0.049l0.038,0.094l0.016,0.057v0.064l-0.007,0.059l-0.015,0.031  l-0.033,0.041l-0.04,0.033l-0.045,0.02l-0.061,0.014h-0.042l-0.061-0.014l-0.019-0.008L70.454,92.135L70.454,92.135z M70.378,91.547  l0.308,0.037l0.129,0.057v0.016l-0.086,0.109l-0.021-0.014c-0.006-0.004-0.013-0.002-0.019-0.006s-0.006-0.012-0.013-0.014  l-0.107-0.055c-0.005-0.002-0.011,0.002-0.017,0c-0.005-0.004-0.007-0.01-0.013-0.012l-0.122-0.041  c-0.004-0.002-0.008,0.002-0.013,0.002c-0.004-0.002-0.006-0.006-0.01-0.008l-0.121-0.027c-0.01-0.002-0.018,0.006-0.026,0.004  c-0.009,0-0.015-0.01-0.024-0.01c-0.022,0-0.037,0.018-0.057,0.023c-0.031,0.01-0.058,0.016-0.083,0.035  c-0.022,0.018-0.032,0.041-0.047,0.068c-0.012,0.02-0.032,0.031-0.038,0.055c-0.002,0.008,0.006,0.016,0.005,0.025  c-0.001,0.008-0.01,0.014-0.01,0.023v1.051c0,0.006,0.004,0.008,0.004,0.012c0.001,0.029,0.021,0.051,0.033,0.078  s0.018,0.057,0.041,0.078c0.002,0.002,0.001,0.006,0.005,0.01l0.081,0.066c0.01,0.01,0.024,0.008,0.035,0.014  c0.01,0.006,0.012,0.018,0.021,0.021l0.07,0.029h-1.325l-0.16-0.012c-0.002,0-0.003,0.002-0.005,0.002s-0.003-0.002-0.005-0.002  l-0.377-0.014c-0.003,0-0.006,0-0.009,0c-0.001,0-0.002,0.002-0.004,0.002s-0.003-0.002-0.005-0.002l-0.351,0.014  c-0.001,0-0.001,0-0.003,0.002c-0.001,0-0.002-0.002-0.004-0.002l-0.188,0.014c-0.017,0-0.026,0.016-0.042,0.021  c-0.016,0.004-0.032-0.004-0.047,0.002l-0.581,0.297c-0.001-0.012,0.007-0.023,0.004-0.035c-0.005-0.018-0.022-0.023-0.03-0.037  c-0.008-0.016-0.004-0.033-0.015-0.047L67,93.217l-0.118-0.197v-0.246c0-0.047-0.025-0.084-0.051-0.121l0.047-0.061l0.26-0.176  l0.305-0.186l0.293-0.152l0.312-0.143l0.319-0.115l0.328-0.105l0.33-0.076l0.34-0.053l0.337-0.025l0,0l0.35-0.025L70.378,91.547z   M61.899,88.6l-1.302,0.184h-1.735c-0.01,0-0.016,0.01-0.025,0.012c-0.01,0-0.018-0.008-0.026-0.006l-1.133,0.264h-3.114  l-0.493-0.117l2.02-0.029c0.029,0,0.05-0.021,0.076-0.033c0.028-0.012,0.062-0.014,0.084-0.035c0.02-0.021,0.021-0.053,0.032-0.078  c0.012-0.029,0.034-0.051,0.034-0.084v-0.787l1.265,0.029v0.26c0,0.004,0.003,0.006,0.004,0.01c0,0.002-0.003,0.006-0.003,0.008  c0.003,0.035,0.026,0.061,0.043,0.09c0.012,0.02,0.013,0.043,0.028,0.057c0.042,0.041,0.097,0.066,0.158,0.066  c0.005,0,0.012,0,0.017-0.002l5.809-0.443c0.013-0.002,0.02-0.014,0.031-0.016c0.041-0.01,0.077-0.025,0.107-0.055  c0.016-0.016,0.021-0.031,0.032-0.051c0.012-0.02,0.03-0.033,0.036-0.057l0.207-0.887l0.133-0.021l0.005,0.025  c0.001,0.002,0.003,0.004,0.004,0.006s-0.001,0.004-0.001,0.004l0.027,0.109c0.001,0.004,0.006,0.006,0.008,0.012  c0.001,0.004-0.002,0.008-0.001,0.014l0.039,0.102l0.039,0.119c0.001,0.002,0.003,0.002,0.003,0.004c0.001,0,0,0.002,0,0.004  l0.041,0.107l0.04,0.107c0.002,0.006,0.008,0.008,0.01,0.012c0.001,0.004-0.001,0.008,0,0.01l0.055,0.109  c0.003,0.006,0.011,0.01,0.015,0.016c0.003,0.004,0.001,0.01,0.004,0.014l0.054,0.076l0.02,0.045L61.899,88.6z M48.593,93.113  c-0.004,0-0.006,0.006-0.01,0.006c-0.005,0.002-0.008-0.002-0.013,0l-0.693,0.195c0-0.006-0.006-0.01-0.007-0.016  c0-0.01,0.008-0.018,0.006-0.027l-0.006-0.035l0.098-0.105l0.189-0.164l0.207-0.154l0.201-0.139l0.217-0.115l0,0l0.225-0.113  l0.235-0.086l0.244-0.076l0.257-0.053c0.02-0.004,0.029-0.021,0.046-0.029c0.021-0.012,0.046-0.01,0.064-0.025l0.004-0.004  c0.031,0.016,0.061,0.037,0.097,0.037c0.008,0,0.016,0,0.024-0.002l0.239-0.025h0.275h0.095h0.107c0.019,0,0.037-0.002,0.056-0.008  l0.108-0.027l0.096-0.023l0.074-0.012c0.004,0,0.005-0.004,0.008-0.006c0.012-0.002,0.024-0.002,0.036-0.006l0.101-0.037  l0.084-0.025c0.007,0,0.008-0.008,0.015-0.012c0.012-0.004,0.024-0.002,0.036-0.008l0.094-0.055l0.087-0.051v0.391  c0,0.092,0.063,0.156,0.143,0.193l-0.19,0.098L48.593,93.113z M46.383,94.188l-0.542,0.129c0.001-0.006-0.004-0.01-0.004-0.016  c0.001-0.006,0.008-0.01,0.008-0.018v-0.107h0.08c0.013,0,0.025,0,0.038-0.002l0.161-0.027l0.162-0.027l0,0c0.001,0,0.002,0,0.003,0  l0.148-0.027c0.003,0,0.005-0.004,0.007-0.004c0.011-0.004,0.021-0.002,0.031-0.006l0.147-0.055l0.148-0.055  c0.001,0,0.001,0,0.002,0c0.002-0.002,0.003-0.002,0.005-0.002l0.133-0.053L46.383,94.188z M43.752,94.791l-0.97-0.088l-0.869-0.211  l-0.179-0.162v-0.158l0.194-0.166l0.279-0.135l0.026,0.066c0.003,0.006,0.01,0.01,0.015,0.016c0.002,0.006-0.001,0.012,0.002,0.018  l0.04,0.066l0.041,0.068c0.004,0.006,0.016,0.004,0.021,0.012c0.007,0.01,0.004,0.023,0.014,0.031l0.054,0.055  c0.004,0.004,0.011,0.002,0.016,0.006s0.004,0.012,0.009,0.016l0.041,0.029l0.042,0.043c0.014,0.014,0.034,0.012,0.05,0.021  s0.022,0.029,0.04,0.035l0.081,0.027h0.001l0.054,0.021c0.013,0.004,0.025,0.004,0.039,0.008c0.004,0,0.005,0.004,0.009,0.006  l0.074,0.012l0,0l0.052,0.01l0.068,0.023c0.021,0.008,0.044,0.01,0.064,0.01c0.001,0,0.002,0.002,0.002,0.002h0.004  c0,0,0.001,0,0.002,0s0.001,0,0.002,0l1.448,0.039c0.002,0.002,0.004,0.002,0.006,0.002c0.028,0,0.056-0.006,0.084-0.016  l0.517-0.203l0.003,0.027l-0.018,0.15L43.752,94.791z M44.856,91.777c0.006-0.002,0.013-0.002,0.019-0.002l0.304-0.039l0.285,0.014  l0.287,0.059l0.292,0.109l0.255,0.146l0.073,0.055l-0.091,0.045l-0.135,0.066c-0.008,0.004-0.009,0.014-0.016,0.02  c-0.007,0.004-0.016,0-0.022,0.006l-0.121,0.094l-0.117,0.092c0,0-0.001,0-0.002,0l-0.107,0.08  c-0.007,0.006-0.006,0.016-0.013,0.021c-0.006,0.006-0.016,0.004-0.021,0.01l-0.099,0.111l-0.107,0.107  c-0.006,0.008-0.004,0.018-0.009,0.023c-0.006,0.006-0.016,0.006-0.02,0.014l-0.059,0.086c-0.002-0.002-0.005-0.002-0.007-0.004  c-0.005-0.006-0.002-0.014-0.008-0.02l-0.229-0.242c-0.007-0.006-0.016-0.004-0.022-0.01s-0.006-0.016-0.013-0.021l-0.27-0.188  c-0.008-0.006-0.017-0.002-0.024-0.006c-0.007-0.004-0.009-0.014-0.017-0.018l-0.31-0.135c-0.007-0.002-0.014,0.002-0.021,0  c-0.006-0.002-0.008-0.01-0.015-0.012l-0.323-0.08h-0.001l0.022-0.031L44.856,91.777z M48.045,86.902l-0.651,0.145l-0.066-0.186  c-0.001-0.004-0.006-0.006-0.008-0.01c-0.011-0.027-0.035-0.041-0.057-0.062s-0.037-0.049-0.065-0.061  c-0.003,0-0.005-0.006-0.008-0.006l-0.304-0.111l-0.04-0.602l1.277,0.066c0.003,0,0.006,0,0.009,0l0,0l2.116,0.027  c0.001,0,0.002,0,0.003,0c0.002,0,0.003,0,0.004,0l2.116-0.041h0.001c0.002,0,0.004,0,0.007,0l2.102-0.107c0,0,0,0,0.001,0  c0.002,0,0.004,0,0.007,0l2.103-0.176l0,0c0.002,0,0.006,0,0.009,0l2.089-0.256c0,0,0-0.002,0.001-0.002c0.002,0,0.003,0,0.005,0  l2.075-0.311c0.001,0,0.001,0,0.001,0c0.003,0,0.005,0,0.007,0l2.089-0.391c0.001,0,0.001-0.002,0.002-0.002  c0.002,0,0.004,0,0.006,0l2.049-0.459c0.001,0,0.001,0,0.002,0s0.003,0,0.005-0.002l0.519-0.131l0.064,1.988l-1.185,0.172  c-0.001,0-0.002,0.002-0.002,0.002c-0.001,0-0.001,0-0.003,0l-0.498,0.08c-0.017,0.002-0.024,0.018-0.041,0.025  c-0.027,0.01-0.047,0.021-0.069,0.043c-0.022,0.02-0.037,0.041-0.05,0.068c-0.007,0.016-0.023,0.021-0.027,0.037l-0.204,0.875  l-5.393,0.412v-0.236c0-0.035-0.022-0.059-0.036-0.09c-0.011-0.023-0.012-0.053-0.029-0.07c-0.023-0.023-0.059-0.027-0.09-0.039  c-0.024-0.01-0.042-0.031-0.069-0.031h-0.004c-0.001,0-0.001,0-0.001,0c-0.001,0-0.001,0-0.002,0l-1.718-0.041  c-0.002,0-0.004,0-0.006,0c-0.062,0-0.119,0.025-0.161,0.066c-0.018,0.018-0.018,0.047-0.029,0.068  c-0.015,0.029-0.038,0.055-0.039,0.09c0,0.002,0.001,0.002,0.001,0.002c0,0.002-0.002,0.002-0.002,0.004v0.797l-2.297,0.035  l0.115-1.529c0-0.004-0.003-0.006-0.003-0.01s0.004-0.006,0.004-0.01c0-0.031-0.021-0.051-0.032-0.076  c-0.011-0.027-0.013-0.055-0.033-0.076c-0.021-0.023-0.053-0.029-0.083-0.041c-0.022-0.01-0.038-0.031-0.064-0.033  c-0.003,0-0.005,0.002-0.008,0.002c-0.004,0-0.006-0.004-0.01-0.004c-0.001,0-0.002,0-0.003,0l-1.698,0.027  c-0.005,0-0.007,0.006-0.011,0.006c-0.005,0-0.008-0.004-0.012-0.004c-0.026,0.004-0.042,0.025-0.064,0.037  c-0.022,0.01-0.048,0.006-0.067,0.023l-0.216,0.205l-0.229,0.156l-0.269,0.133l-0.278,0.102l-0.282,0.074l-0.289,0.037l-0.283-0.014  l-0.292-0.035l-0.283-0.088l-0.274-0.111l-0.259-0.135l-0.242-0.18c-0.021-0.016-0.047-0.01-0.07-0.018s-0.04-0.027-0.066-0.027  h-0.161c-0.01,0-0.016,0.01-0.024,0.01C48.061,86.908,48.054,86.9,48.045,86.902z M45.622,86.322  c-0.006-0.002-0.011,0.004-0.017,0.002c-0.005,0-0.008-0.006-0.014-0.006l-1.429-0.107c-0.01-0.002-0.017,0.008-0.026,0.008  c-0.033,0.002-0.059,0.016-0.087,0.031c-0.025,0.012-0.048,0.021-0.066,0.041c-0.008,0.008-0.019,0.008-0.025,0.016l-0.219,0.311  l-0.19,0.199h-0.664l-0.821-0.242l-0.105-0.119l0.045-0.494c0.001-0.008-0.007-0.012-0.007-0.02s0.008-0.014,0.007-0.021  l-0.054-0.592c-0.002-0.023-0.02-0.035-0.025-0.055c-0.006-0.016,0.001-0.031-0.008-0.047l-0.351-0.566  c-0.004-0.006-0.011-0.004-0.015-0.01c-0.003-0.006-0.001-0.012-0.005-0.016l-0.418-0.5c-0.002-0.002-0.007-0.002-0.009-0.004  c-0.003-0.004-0.002-0.008-0.004-0.01l-0.472-0.473c-0.004-0.004-0.01-0.002-0.014-0.006c-0.004-0.002-0.003-0.008-0.007-0.012  l-0.513-0.404c-0.002-0.002-0.006,0-0.008-0.002c-0.003-0.002-0.003-0.006-0.006-0.008l-0.539-0.363  c-0.004-0.004-0.009,0-0.013-0.004c-0.005-0.002-0.005-0.008-0.009-0.01l-0.594-0.311c-0.004-0.002-0.009,0-0.013,0  c-0.005-0.002-0.005-0.008-0.01-0.01l-0.62-0.242c-0.005-0.002-0.01,0.002-0.015,0s-0.007-0.008-0.012-0.01l-0.634-0.162  c-0.003,0-0.005,0.002-0.008,0.002s-0.004-0.004-0.007-0.004l-0.646-0.121c-0.006-0.002-0.01,0.004-0.015,0.002  c-0.006,0-0.008-0.006-0.014-0.006l-0.66-0.041c-0.006,0-0.007,0.004-0.012,0.004c-0.006,0-0.007-0.004-0.013-0.004l-0.646,0.027  c-0.003,0-0.005,0.004-0.009,0.004s-0.006-0.004-0.01-0.002l-0.646,0.078h-1.362l-0.381-0.186l-0.155-0.301v-0.475l0.144-0.195  c0.016-0.021,0.01-0.045,0.018-0.07c0.008-0.021,0.027-0.039,0.027-0.066v-0.553l2.415-0.324c0.002,0,0.003-0.002,0.005-0.004  c0.01,0,0.02,0,0.028-0.004l3.989-1.158c0.037-0.01,0.058-0.043,0.084-0.066c0.012-0.012,0.03-0.008,0.04-0.021  c0.003-0.004,0-0.01,0.003-0.014c0.016-0.025,0.014-0.055,0.02-0.084c0.004-0.029,0.016-0.057,0.009-0.086  c-0.001-0.004,0.003-0.008,0.002-0.014c-0.008-0.025-0.032-0.037-0.047-0.057c-0.015-0.023-0.019-0.051-0.041-0.066l-3.459-2.453  l-0.725-0.762l2.725-52.535l0.701,0.392l-0.021,0.169c-0.001,0.007,0.006,0.012,0.006,0.02c0,0.007-0.008,0.012-0.007,0.019  l0.013,0.311c0,0.003,0.004,0.006,0.004,0.01c0.001,0.003-0.002,0.005-0.002,0.009l0.041,0.323c0,0.006,0.006,0.01,0.008,0.016  c0.001,0.006-0.004,0.011-0.002,0.017l0.081,0.296c0.001,0.005,0.006,0.008,0.008,0.012c0.001,0.004-0.002,0.008,0,0.012l0.121,0.31  c0.003,0.008,0.011,0.011,0.014,0.019c0.003,0.005,0,0.012,0.003,0.017l0.162,0.27c0.002,0.002,0.005,0.001,0.006,0.003  c0.002,0.004,0,0.008,0.002,0.011l0.189,0.27c0.004,0.005,0.012,0.003,0.017,0.008c0.005,0.007,0.003,0.017,0.009,0.022l0.216,0.216  c0.003,0.003,0.008,0.002,0.011,0.005c0.003,0.002,0.002,0.007,0.005,0.01l0.242,0.202c0.006,0.004,0.012,0.002,0.018,0.006  c0.004,0.003,0.004,0.01,0.009,0.013l0.283,0.175c0.005,0.003,0.01,0.002,0.015,0.005c0.004,0.001,0.004,0.006,0.008,0.008  l0.282,0.135c0.008,0.003,0.017,0.002,0.024,0.005c0.003,0.001,0.004,0.006,0.008,0.007l0.311,0.095  c0.008,0.002,0.016,0.002,0.023,0.003c0.003,0.001,0.003,0.003,0.006,0.004l1.859,0.31c0.007,0.001,0.015,0.002,0.022,0.002  c0.001,0,0.002,0.001,0.002,0.001l0.231,0.013l0.203,0.036l0,0l0.226,0.05l0.202,0.076l0,0l0.191,0.083l0.198,0.112l0.178,0.126  l0.177,0.127l0.184,0.157c0.013,0.011,0.029,0.008,0.042,0.016c0.012,0.007,0.015,0.021,0.027,0.025l0.081,0.03l0.429,4.532  l-0.629,4.082c0,0,0,0,0,0.001l-0.001,0.003c0,0.001,0,0.001,0,0.001s0,0,0,0.001l-0.238,1.49l-2.119,5.327  c-0.006,0.015,0.003,0.028,0,0.043c-0.006,0.03-0.005,0.056,0.001,0.085c0.007,0.03,0.016,0.053,0.033,0.078  c0.008,0.013,0.005,0.03,0.017,0.041l1.05,1.05l-0.603,3.859c-0.002,0.012,0.008,0.021,0.008,0.03c0,0.011-0.01,0.019-0.009,0.029  l2.883,27.98l0,0l0.107,1.807l0,0l0,0l0.485,7.764l0,0l0.027,0.443v0.002l0,0l0.047,0.707L45.622,86.322z M40.578,84.824  l-0.14-0.355c-0.007-0.016-0.023-0.021-0.033-0.035c-0.017-0.025-0.033-0.043-0.059-0.061s-0.048-0.025-0.078-0.031  c-0.017-0.004-0.027-0.02-0.044-0.02h-1.5l-0.648-0.307L37.8,83.826v-0.189c0-0.127-0.104-0.23-0.23-0.23h-1.812l-0.62-0.125  l0.007-0.008c0.045-0.045,0.067-0.104,0.067-0.162v-0.416l0.09-0.229l0.351-0.043l0.619-0.025l0.636,0.037l0.629,0.119l0.611,0.156  l0.591,0.23l0.572,0.299l0.521,0.352l0.493,0.389l0.46,0.461l0.398,0.477l0.124,0.199h-0.052L40.578,84.824z M40.692,23.88  c0.025,0.015,0.053,0.018,0.08,0.021c0.006,0,0.009,0.007,0.015,0.007l0.755,0.054c0.006,0,0.012,0.001,0.017,0.001  c0.047,0,0.094-0.015,0.135-0.044l0.242-0.175c0.006-0.004,0.005-0.012,0.011-0.017c0.005-0.005,0.013-0.002,0.018-0.007  l0.216-0.216c0.004-0.005,0.003-0.012,0.007-0.017c0.003-0.003,0.009-0.002,0.012-0.006l0.188-0.242  c0.003-0.004,0.001-0.009,0.003-0.013c0.003-0.003,0.008-0.002,0.01-0.005l0.162-0.257c0.003-0.004,0-0.009,0.002-0.013  c0.004-0.006,0.011-0.009,0.014-0.016l0.121-0.27c0.002-0.006-0.002-0.011,0.001-0.017c0.002-0.007,0.009-0.011,0.011-0.017  l0.081-0.297c0.002-0.006-0.003-0.01-0.002-0.016s0.008-0.009,0.008-0.016l0.041-0.31c0-0.006-0.005-0.01-0.004-0.015  c0-0.006,0.006-0.01,0.006-0.016v-0.296c0-0.004-0.004-0.007-0.004-0.011c-0.001-0.003,0.003-0.005,0.003-0.009l-0.027-0.311  c0-0.008-0.008-0.012-0.01-0.02c-0.001-0.008,0.004-0.014,0.003-0.021l-0.081-0.296c-0.002-0.007-0.009-0.009-0.012-0.015  c-0.002-0.007,0.003-0.013,0-0.02l-0.121-0.27c0,0-0.001,0-0.001-0.001v-0.001l-0.324-0.701c-0.002-0.004-0.008-0.005-0.01-0.009  s0.001-0.009-0.002-0.013l-0.242-0.404c-0.004-0.007-0.013-0.007-0.018-0.013c-0.005-0.007-0.002-0.015-0.007-0.021l-0.311-0.35  c-0.005-0.007-0.014-0.005-0.02-0.01c-0.006-0.006-0.005-0.015-0.011-0.02l-0.225-0.177l0.212,0.086c0,0,0.001,0,0.002,0.001  l0.549,0.228c0.003,0.001,0.006,0,0.009,0.001c0.002,0.001,0.002,0.003,0.004,0.004l0.579,0.202c0.002,0,0.005,0,0.006,0.001  c0.001,0,0.001,0.001,0.002,0.001l0.566,0.175c0.001,0.001,0.003,0,0.004,0.001s0.001,0.001,0.002,0.002l0.579,0.161  c0.002,0.001,0.004,0.001,0.006,0.001h0.001l0.593,0.148c0,0,0.002,0,0.002,0.001c0.001,0,0.001,0,0.001,0l0.58,0.135  c0.003,0.001,0.006,0.001,0.01,0.002l0.001,0.001l0.593,0.107c0.002,0.001,0.003,0,0.005,0.001c0.001,0,0.001,0,0.001,0l0.606,0.095  c0.003,0,0.006,0,0.009,0c0,0,0,0.001,0.001,0.001l0.458,0.053l0.187,0.455l0.162,0.574v0.428v0.001l-0.013,0.413l-0.04,0.448  l-0.064,0.427l-0.105,0.436l0,0l-0.115,0.411l-0.157,0.405l-0.183,0.404l-0.207,0.388L46.04,25.55l-0.243,0.359l-0.29,0.342  l-0.425,0.447l-0.036-0.014l-0.157-0.135c-0.003-0.003-0.007-0.001-0.011-0.003c-0.003-0.003-0.002-0.007-0.006-0.01l-0.188-0.135  l-0.188-0.135c-0.004-0.003-0.009,0-0.013-0.003c-0.004-0.002-0.004-0.008-0.008-0.01l-0.216-0.122  c-0.004-0.002-0.009,0.001-0.013-0.001s-0.004-0.007-0.008-0.009l-0.216-0.095c-0.002,0-0.004,0.001-0.006,0  c-0.003-0.001-0.003-0.004-0.006-0.005l-0.215-0.081c-0.006-0.002-0.012,0.003-0.018,0.001s-0.008-0.009-0.014-0.01l-0.242-0.054  c-0.003-0.001-0.004,0.001-0.006,0.001s-0.003-0.002-0.005-0.003l-0.229-0.04c-0.006-0.001-0.01,0.004-0.015,0.003  s-0.008-0.006-0.013-0.007l-0.23-0.013l-1.831-0.305l-0.28-0.085l-0.257-0.123L40.4,25.15l-0.221-0.184l-0.196-0.196l-0.175-0.249  l-0.146-0.244L39.554,24l-0.074-0.272l-0.037-0.295l-0.011-0.247L40.692,23.88z M47.535,20.458c0.007,0,0.014,0.001,0.021,0.001l0,0  l0.575,0.025l0.8,0.185L48.844,21c0,0.001,0,0.001,0,0.001l-0.159,0.558l-0.175,0.538l-0.2,0.546c0,0.001,0,0.001,0,0.001  l-0.196,0.51l0,0l-0.242,0.539l0,0l-0.192,0.398c-0.007,0.01-0.02,0.012-0.024,0.023l-0.036,0.084l-0.266,0.505l-0.261,0.494  l-0.004,0.007l-0.005,0.009l-0.301,0.471c-0.013,0.02-0.005,0.042-0.011,0.062c-0.008,0.022-0.029,0.037-0.029,0.062  c0,0.013,0.011,0.018,0.013,0.029c0.003,0.025,0.017,0.043,0.028,0.066c0.012,0.021,0.015,0.052,0.028,0.065  c0.001,0.002,0.003,0.001,0.004,0.002s0.001,0.002,0.002,0.004l0.296,0.282c0.003,0.003,0.008,0.002,0.011,0.005  c0.004,0.002,0.003,0.007,0.006,0.01l0.323,0.256c0.004,0.003,0.009,0.002,0.013,0.004c0.003,0.003,0.003,0.007,0.006,0.01  l0.337,0.216c0.002,0.001,0.004,0,0.006,0.001s0.002,0.004,0.003,0.004l0.351,0.202c0.006,0.004,0.012,0.003,0.019,0.006  c0.002,0.001,0.003,0.005,0.006,0.006l0.378,0.162c0.007,0.003,0.014,0.002,0.021,0.005c0.003,0.001,0.004,0.005,0.008,0.006  l0.391,0.107c0.005,0.001,0.009,0.001,0.013,0.002c0.002,0.001,0.002,0.002,0.004,0.002l0.404,0.081  c0.007,0.001,0.013,0.001,0.019,0.002c0.001,0,0.002,0.002,0.003,0.002l0.404,0.04c0.008,0.001,0.016,0.001,0.023,0.001l0,0  l0.396,0.013c0.002,0.001,0.005,0.001,0.008,0.001c0.007,0,0.015-0.001,0.022-0.001l0.404-0.041c0.001,0,0.002-0.001,0.003-0.001  c0.006-0.001,0.013-0.001,0.02-0.002l0.404-0.081c0.001,0,0.001-0.002,0.003-0.002c0.005-0.001,0.009-0.001,0.013-0.002l0.143-0.039  l1.05,6.622l0.111,2.566l-3.819,0.552l-2.537-1.262c-0.013-0.006-0.026,0.002-0.039-0.002c-0.013-0.005-0.02-0.018-0.033-0.02  l-0.791-0.104l0.598-3.879c0.002-0.011-0.008-0.018-0.008-0.028c0.001-0.011,0.011-0.018,0.01-0.028l-0.435-4.599l0.466-0.49  c0.002-0.002,0.001-0.005,0.003-0.007s0.005-0.001,0.007-0.003l0.296-0.351c0.004-0.004,0.002-0.01,0.005-0.014  s0.008-0.002,0.01-0.006l0.256-0.377c0.002-0.003,0-0.005,0.002-0.007c0.001-0.002,0.004-0.001,0.005-0.003l0.229-0.378  c0.001-0.001,0-0.004,0.001-0.005c0.002-0.003,0.004-0.004,0.006-0.006L46.882,25c0.002-0.002,0-0.005,0.001-0.006  c0.002-0.004,0.005-0.005,0.006-0.008l0.189-0.418c0-0.001-0.001-0.004,0-0.005c0.001-0.003,0.004-0.004,0.005-0.007l0.161-0.417  c0.001-0.004-0.001-0.007,0-0.011s0.006-0.007,0.007-0.011l0.121-0.431c0.001-0.002,0-0.003,0-0.004  c0-0.002,0.002-0.003,0.003-0.004l0.107-0.445c0.001-0.004-0.002-0.007-0.002-0.01c0.002-0.004,0.006-0.006,0.006-0.011l0.067-0.444  c0.001-0.003-0.002-0.005-0.002-0.007c0-0.003,0.004-0.004,0.004-0.007l0.04-0.458c0-0.003-0.002-0.005-0.002-0.007  c0-0.003,0.003-0.004,0.003-0.007l0.014-0.431c0-0.001-0.002-0.002-0.002-0.003c0-0.002,0.002-0.003,0.002-0.005v-0.458  c0-0.012-0.011-0.02-0.013-0.03c-0.001-0.012,0.007-0.021,0.004-0.032l-0.175-0.62c-0.002-0.005-0.007-0.006-0.009-0.011  c-0.002-0.004,0.002-0.009,0-0.014l-0.1-0.242L47.535,20.458z M53.773,36.685l1.452-0.014c0,0,0,0,0.001,0c0.002,0,0.004,0,0.006,0  l1.46-0.054l0,0c0.005,0,0.01,0,0.015,0l1.469-0.095c0,0,0-0.001,0.001-0.001c0.002,0,0.004,0,0.006,0l1.469-0.135l0,0  c0.002,0,0.003,0,0.005,0l0.472-0.053v1.049l-0.566,0.069v0.001l-1.469,0.12c-0.001,0-0.001-0.001-0.001-0.001l-1.496,0.108h-0.001  l-1.479,0.053l0,0c-0.001,0-0.002,0-0.003,0l-1.482,0.014h-0.415c-0.002,0-0.004,0.002-0.006,0.002s-0.003-0.001-0.005-0.001  l-5.596,0.267l-1.305-0.711c-0.014-0.008-0.029,0-0.043-0.005s-0.021-0.019-0.036-0.021l-1.25-0.17l0.171-1.069l0.764,0.101  l2.567,1.276c0.032,0.017,0.066,0.023,0.101,0.023c0,0,0,0.001,0.001,0.001h0.001l0,0l0,0c0.011,0,0.022-0.001,0.033-0.003  l4.097-0.593l0.427-0.054l0,0c0.003,0,0.006,0,0.009-0.001L53.773,36.685z M64.869,45.944l1.8,10.306l-0.857,0.564  c-0.015,0.01-0.015,0.027-0.026,0.039c-0.021,0.021-0.036,0.041-0.048,0.07c-0.012,0.027-0.016,0.051-0.017,0.082  c0,0.016-0.013,0.029-0.009,0.045l1.409,7.072l-2.532,0.418l0,0l0,0l-0.01,0.002l0,0l-6.795,1.113l1.071-22.993l2.233-0.526  l1.264,2.338v0.001c0.017,0.03,0.042,0.051,0.068,0.07c0.007,0.005,0.011,0.014,0.019,0.019c0.034,0.02,0.075,0.031,0.115,0.031  c0.038,0,0.075-0.009,0.11-0.028l1.021-0.556L64.869,45.944z M56.543,85.322L56.543,85.322l-0.581,0.049l0.642-0.057L56.543,85.322z   M54.455,85.496l-0.884,0.045l1.394-0.088L54.455,85.496z M47.887,85.604l0.369,0.014h-0.118l0,0L47.887,85.604z M52.362,85.604  L52.362,85.604l-0.088,0.002l0.748-0.037L52.362,85.604z M60.693,84.758L60.693,84.758l-0.097,0.014l0.203-0.033L60.693,84.758z   M65.169,83.387l-1.663,0.361l0,0l-1.678,0.35l-1.667,0.281l-1.679,0.256l-1.695,0.201l0,0l-1.686,0.148l0,0l-1.712,0.107l0,0  l-1.697,0.08l0,0h-0.001l-1.708,0.014l-1.71-0.027h-0.001L46.788,85.1l-0.454-7.268l1.387,0.223c0.003,0,0.007,0,0.01,0.002h0.001  l1.658,0.189c0.003,0,0.007,0,0.01,0c0.001,0,0.001,0,0.001,0l1.685,0.107c0.005,0,0.011,0.002,0.015,0.002  c0.001,0,0.001-0.002,0.001-0.002l1.678,0.041c0.003,0,0.005,0,0.006,0c0.002,0,0.004,0,0.006,0l1.678-0.041  c0.001,0,0.001,0.002,0.001,0.002c0.005,0,0.01-0.002,0.015-0.002l1.685-0.107h0.001c0.004,0,0.008,0,0.013,0l1.657-0.203  c0.001,0,0.001,0,0.002,0c0.001-0.002,0.004,0,0.005-0.002l1.671-0.256c0.001,0,0.002,0,0.002,0c0.004,0,0.008,0,0.012-0.002  l1.644-0.35c0.001,0,0.002-0.002,0.003-0.002c0.002,0,0.006,0,0.009-0.002L62.816,77l0.001-0.002c0.003,0,0.004,0,0.006-0.002  l1.617-0.484c0.001,0,0.001-0.002,0.002-0.002c0.003,0,0.006,0,0.009-0.002l1.319-0.469l0.844,6.969L65.169,83.387z M64.3,76.074  l-1.602,0.48l0,0l-1.623,0.43l-1.636,0.348l-1.656,0.254l0,0l-1.653,0.201l-1.676,0.107l0,0l-1.67,0.041l-1.669-0.041  c-0.001,0-0.001,0-0.001,0l-1.681-0.107L47.784,77.6l-1.479-0.238l-0.098-1.623c0-0.002-0.002-0.002-0.002-0.004  s0.001-0.004,0.001-0.006l-2.88-27.958l0.615-3.948c0-0.001-0.001-0.001,0-0.001l0.158-0.985l2.915-0.13v5.824v1.563  c0,0.002,0.003,0.004,0.003,0.006c0,0.003-0.003,0.004-0.003,0.007c0.003,0.036,0.026,0.062,0.044,0.093  c0.01,0.02,0.011,0.043,0.026,0.059c0.042,0.041,0.098,0.066,0.159,0.066c0.004,0,0.009-0.001,0.013-0.001l1.994-0.107l0,0  c0.004-0.001,0.008-0.001,0.011-0.001l0.135-0.014c0.003,0,0.004-0.002,0.007-0.003c0.012-0.002,0.024-0.002,0.037-0.006l0.135-0.04  c0.002-0.001,0.003-0.004,0.004-0.004c0.005-0.002,0.011-0.001,0.015-0.003l0.135-0.054c0.004-0.001,0.005-0.006,0.008-0.008  c0.006-0.003,0.013-0.001,0.019-0.005l0.121-0.067c0.011-0.006,0.012-0.019,0.021-0.025c0.01-0.007,0.022-0.004,0.031-0.013  l0.094-0.095l0.108-0.107c0.005-0.005,0.003-0.013,0.007-0.018c0.004-0.004,0.011-0.003,0.015-0.007l0.08-0.108  c0.006-0.007,0.002-0.017,0.007-0.024c0.007-0.011,0.019-0.017,0.022-0.028l0.053-0.132l0.052-0.116  c0.004-0.008-0.001-0.016,0.001-0.023c0.003-0.009,0.013-0.015,0.015-0.024l0.027-0.135c0.002-0.009-0.005-0.015-0.005-0.023  c0.002-0.009,0.01-0.014,0.01-0.021v-0.148v-0.135c0-0.007-0.007-0.011-0.008-0.018c0-0.007,0.006-0.012,0.005-0.018l-0.27-1.739  l0,0l-0.677-4.449l3.956-0.17l0.137,0.313c0.001,0.001,0.002,0.002,0.003,0.003c0.001,0.002,0,0.004,0,0.005l0.216,0.445  c0.001,0.001,0.002,0.001,0.003,0.003c0,0,0,0.001,0,0.002l0.216,0.418c0.011,0.02,0.029,0.031,0.045,0.048  c0.011,0.011,0.018,0.022,0.029,0.031c0.039,0.027,0.083,0.045,0.13,0.045c0.018,0,0.035-0.002,0.053-0.006l4.138-0.969  l-1.078,23.146c0,0.008,0.009,0.014,0.009,0.023c0.001,0.008-0.007,0.016-0.006,0.023c0.005,0.029,0.026,0.047,0.04,0.07  c0.011,0.02,0.015,0.039,0.03,0.055c0.031,0.029,0.07,0.043,0.113,0.053c0.013,0.002,0.02,0.016,0.033,0.016  c0.003,0,0.007,0,0.011,0c0.012,0,0.024,0,0.037-0.004l6.839-1.119l1.296,10.535L64.3,76.074z M49.003,42.623l0.666,4.385  l-0.106,0.106l0,0l-0.177,0.165l-0.179,0.151l-0.205,0.142l-0.216,0.148c0,0,0,0,0,0.001l-0.193,0.12l-0.219,0.103l-0.223,0.105  l-0.222,0.087l-0.233,0.064h-0.001l-0.22,0.058v-5.572L49.003,42.623z M47.476,48.726l0.062-0.009  c0.002-0.001,0.003-0.003,0.005-0.003c0.006-0.001,0.012-0.001,0.018-0.002l0.257-0.067l0,0c0.001-0.001,0.002,0,0.003-0.001  l0.242-0.067c0.003-0.001,0.004-0.004,0.006-0.005c0.005-0.001,0.011,0,0.016-0.003l0.243-0.094  c0.001-0.001,0.002-0.003,0.004-0.004c0.003-0.001,0.007-0.001,0.011-0.002l0.229-0.108l0.229-0.107  c0.004-0.002,0.004-0.007,0.008-0.009c0.005-0.003,0.011-0.002,0.017-0.005l0.215-0.135c0.002-0.001,0.002-0.002,0.003-0.004  c0.001-0.001,0.004,0,0.006-0.001l0.216-0.148l0.216-0.148c0.003-0.002,0.003-0.008,0.007-0.01c0.004-0.004,0.009-0.002,0.013-0.005  l0.188-0.162c0.001-0.001,0.001-0.003,0.002-0.005c0.001-0.001,0.004,0,0.005-0.001l0.062-0.058l0.198,1.281v0.117v0.126  l-0.018,0.088l-0.043,0.097c-0.001,0.002,0.001,0.004,0,0.005c-0.001,0.002-0.003,0.002-0.003,0.003l-0.043,0.105l-0.053,0.071  l-0.097,0.097l-0.072,0.072l-0.081,0.045l-0.109,0.044l-0.103,0.031l-0.115,0.011l0,0l-1.741,0.095V48.726z M63.658,43.503  l-1.011,0.55l-1.238-2.29c-0.01-0.019-0.031-0.022-0.045-0.036c-0.021-0.023-0.039-0.043-0.067-0.056  c-0.027-0.012-0.052-0.012-0.082-0.013c-0.021-0.001-0.038-0.016-0.061-0.01l-2.574,0.606l0,0l-4.258,0.996l-0.131-0.253l0,0  l-0.216-0.445h-0.001l-0.185-0.422c-0.003-0.007-0.011-0.008-0.014-0.014c-0.002-0.004-0.004-0.008-0.006-0.012  c-0.012-0.022-0.013-0.051-0.032-0.067c-0.044-0.041-0.103-0.068-0.169-0.072l-4.38,0.188l0,0l-1.943,0.08c-0.001,0-0.001,0-0.001,0  l0,0l-0.009,0.001c0,0,0,0-0.001,0l0,0l-3.342,0.148c-0.022,0.001-0.036,0.019-0.056,0.025c-0.032,0.011-0.062,0.018-0.086,0.04  c-0.02,0.019-0.026,0.042-0.039,0.066c-0.011,0.021-0.032,0.036-0.036,0.062l-0.117,0.728l-0.707-0.707l2.007-5.042l1.262,0.173  l1.324,0.721c0.035,0.019,0.072,0.028,0.11,0.028c0.003,0,0.007-0.001,0.011-0.001l5.649-0.269l0,0h0.418c0,0,0.001,0,0.002,0  l1.482-0.014c0,0,0,0,0.001,0s0.004,0,0.005-0.001l1.487-0.053l0,0c0.006,0,0.011-0.001,0.017-0.001l1.496-0.107  c0,0,0-0.001,0.001-0.001s0.001,0,0.001,0l1.482-0.121c0.004,0,0.007,0,0.01-0.001l0.645-0.079l4.359,5.147L63.658,43.503z   M44.481,94.053l-1.32-0.037c-0.002-0.002-0.001-0.006-0.004-0.006l-0.028-0.023l-0.018-0.035c-0.004-0.008-0.014-0.01-0.019-0.016  c-0.005-0.008-0.001-0.018-0.007-0.025l-0.033-0.041l-0.005-0.012l-0.009-0.057l0,0l-0.011-0.07V93.68l0.011-0.061l0.01-0.061  l0.003-0.008l0.677-0.162c0.002-0.002,0.003-0.004,0.005-0.006c0.007-0.002,0.014,0,0.021-0.002l0.673-0.25l0.206,0.133l0.204,0.215  l0.152,0.258l0.037,0.104L44.481,94.053z M51.572,90.969L51.439,91.4l-0.02,0.016l-0.062,0.043l-0.089,0.051l-0.094,0.053  l-0.07,0.041l-0.068,0.02c-0.003,0-0.004,0.004-0.007,0.006c-0.004,0-0.007-0.002-0.011,0l-0.088,0.033l-0.057,0.008  c-0.004,0.002-0.006,0.006-0.009,0.006c-0.004,0.002-0.006-0.002-0.01-0.002l-0.107,0.027l-0.079,0.02h-0.081h-0.011l0.052-0.051  c0.003-0.002,0.002-0.006,0.003-0.008c0.002-0.002,0.004,0,0.006-0.002l0.229-0.256c0.001-0.002,0-0.004,0.002-0.008  c0.002,0,0.005,0,0.006-0.002l0.216-0.27c0.003-0.004,0.001-0.01,0.005-0.016c0.002-0.002,0.008,0,0.01-0.004l0.188-0.297  c0.001-0.002,0-0.004,0.001-0.008c0.002-0.002,0.006-0.004,0.007-0.006l0.162-0.297c0.001-0.002,0-0.004,0-0.004  c0.002-0.004,0.004-0.004,0.006-0.006l0.147-0.311c0.003-0.004-0.001-0.008,0.001-0.014s0.009-0.008,0.01-0.014l0.004-0.01  L51.572,90.969z M46.336,93.643l-0.129,0.023l-0.158,0.025l-0.142,0.023H45.81l-0.021-0.131c-0.002-0.008-0.012-0.012-0.014-0.02  c-0.002-0.01,0.004-0.018,0.001-0.025l-0.085-0.215l0.012-0.023l0.081-0.104c0.002-0.002,0-0.006,0.002-0.01  c0.002-0.002,0.006,0,0.008-0.004l0.067-0.102l0.093-0.092c0.002-0.002,0.001-0.006,0.003-0.008c0.001-0.002,0.004,0,0.006-0.002  l0.092-0.104l0.09-0.068c0.001,0,0.001,0,0.001-0.002c0.001,0,0.002,0,0.002,0l0.121-0.094l0.104-0.08l0.114-0.059l0.135-0.066  l0.112-0.057l0.163,0.246l0.123,0.27l0.095,0.273l0.001,0.018l-0.031,0.029l-0.101,0.078l-0.113,0.066l-0.134,0.061l-0.121,0.049  l0,0l-0.148,0.055L46.336,93.643z M46.919,93.914l-0.005,0.002l0.001-0.002C46.916,93.914,46.918,93.914,46.919,93.914z   M48.008,88.818c0.007-0.008,0.004-0.018,0.01-0.025c0.01-0.016,0.026-0.023,0.032-0.039l0.311-0.729  c0.003-0.008-0.002-0.016,0-0.025c0.003-0.01,0.014-0.014,0.015-0.025l0.075-0.432l0.238,0.125c0.005,0.002,0.01,0.002,0.015,0.004  c0.002,0,0.002,0.004,0.005,0.004l0.297,0.123c0.005,0.002,0.01,0,0.015,0.002c0.003,0.002,0.003,0.004,0.006,0.004l0.31,0.096  c0.011,0.002,0.021,0.002,0.033,0.004c0.002,0,0.003,0.004,0.005,0.004l0.323,0.039c0.006,0.002,0.012,0.002,0.019,0.002l0,0h0.008  c0.001,0,0.002,0,0.003,0l0,0l0.3,0.014c0.003,0,0.006,0,0.009,0l0,0l0,0c0.001,0,0.001,0,0.001,0l0,0c0.01,0,0.02,0,0.028-0.002  l0.324-0.041c0.001,0,0.002-0.002,0.004-0.002c0.008,0,0.017,0,0.024-0.002l0.311-0.082c0.002,0,0.002-0.002,0.004-0.004  c0.006,0,0.011,0,0.017-0.002l0.297-0.107c0.003-0.002,0.004-0.006,0.007-0.008c0.006-0.002,0.012,0,0.017-0.004l0.266-0.133  l0.01,0.07l0.012,0.418l-0.025,0.441l-0.064,0.426l-0.091,0.412l-0.139,0.406l-0.171,0.406l-0.203,0.383l-0.235,0.352l-0.267,0.342  l-0.297,0.311l-0.271,0.25l-0.207,0.041c-0.005,0-0.006,0.006-0.011,0.008c-0.005,0-0.009-0.004-0.014-0.002l-0.256,0.08  c-0.002,0.002-0.003,0.004-0.005,0.004c-0.002,0.002-0.004,0-0.006,0l-0.256,0.096c-0.005,0.002-0.006,0.006-0.01,0.008  s-0.01,0-0.014,0.002l-0.242,0.121c-0.001,0-0.001,0.002-0.002,0.002s-0.002,0-0.003,0l-0.229,0.121  c-0.004,0.002-0.004,0.008-0.009,0.012c-0.004,0.002-0.01,0-0.014,0.002l-0.216,0.148c-0.001,0.002-0.001,0.004-0.002,0.004  c-0.002,0.002-0.004,0-0.006,0.002l-0.215,0.162c-0.003,0.002-0.003,0.006-0.005,0.006c-0.002,0.004-0.006,0.002-0.008,0.004  l-0.099,0.086l-0.015-0.053c-0.002-0.01-0.012-0.014-0.016-0.021c-0.003-0.008,0.003-0.018-0.002-0.025l-0.148-0.283  c-0.001-0.002-0.004-0.002-0.006-0.004c-0.001-0.002,0-0.006-0.001-0.008l-0.161-0.27c-0.006-0.008-0.016-0.008-0.021-0.016  c-0.005-0.008-0.002-0.018-0.009-0.023l-0.216-0.229c-0.004-0.006-0.012-0.004-0.017-0.008c-0.006-0.006-0.004-0.012-0.01-0.018  l-0.242-0.188c-0.004-0.004-0.01-0.002-0.014-0.004c-0.004-0.004-0.004-0.01-0.009-0.012l-0.27-0.162  c-0.008-0.004-0.016,0-0.023-0.004c-0.007-0.004-0.009-0.012-0.017-0.016l-0.296-0.107c-0.006-0.002-0.011,0.002-0.017,0  c-0.004,0-0.006-0.006-0.012-0.008l-0.228-0.051l0.169-0.113c0.005-0.002,0.005-0.01,0.01-0.014c0.026-0.02,0.052-0.041,0.068-0.072  l0.309-0.605L48.008,88.818z M52.004,87.191l1.192-0.02l-0.111,1.479l-0.963-0.416L52.004,87.191z M62.046,31.204l-0.49-1.57  l1.141,1.927L62.046,31.204z M60.832,28.688c-0.01,0.025,0.002,0.05,0.001,0.076s-0.016,0.051-0.007,0.078l0.787,2.519l-1.429,4.505  l-0.575,0.063l0,0l-1.463,0.135l-1.469,0.094l0,0l-1.453,0.054h-0.001c-0.001,0-0.001,0-0.002,0l-1.469,0.014  c-0.007,0-0.011,0.007-0.018,0.007c-0.007,0.001-0.012-0.005-0.019-0.004l-0.379,0.063v-0.839l2.666-8.153l0.104,0.035  c0.005,0.001,0.01,0.001,0.016,0.003c0.001,0,0.002,0.001,0.004,0.002l0.337,0.081c0.005,0.001,0.011,0.001,0.017,0.002  c0.002,0,0.002,0.002,0.003,0.002l0.364,0.054c0.011,0.002,0.022,0.003,0.033,0.003l0,0h0.351l0,0c0.009,0,0.018-0.001,0.026-0.002  l0.351-0.04c0.002,0,0.002-0.002,0.004-0.002c0.007-0.001,0.014-0.001,0.021-0.003l0.351-0.081c0.001,0,0.002-0.002,0.004-0.003  c0.005-0.001,0.01,0,0.015-0.002l0.337-0.107c0.004-0.002,0.006-0.008,0.011-0.01c0.008-0.003,0.017-0.001,0.025-0.006l0.31-0.161  c0.002-0.001,0.002-0.003,0.003-0.004c0.003-0.002,0.006,0,0.008-0.002l0.296-0.176c0.004-0.002,0.004-0.007,0.008-0.01  c0.005-0.003,0.011-0.002,0.015-0.005l0.283-0.216c0.005-0.003,0.004-0.01,0.008-0.014c0.005-0.004,0.012-0.002,0.016-0.007  l0.257-0.256c0.002-0.003,0.001-0.007,0.004-0.01c0.002-0.002,0.006-0.001,0.008-0.004l0.02-0.023l1.288,2.186L60.832,28.688z   M59.249,26.053l-0.243,0.243l-0.258,0.196l-0.285,0.168l-0.281,0.147l-0.311,0.1l-0.327,0.075L57.22,27.02h-0.324l-0.334-0.049  l-0.313-0.075L55.93,26.79c0,0-0.001,0.001-0.001,0l0,0c-0.011-0.004-0.021,0.005-0.032,0.002c-0.05-0.008-0.1-0.01-0.144,0.012  c-0.009,0.004-0.011,0.017-0.019,0.022c-0.041,0.026-0.079,0.06-0.096,0.109c0,0,0.001,0.001,0,0.002l0,0l-2.749,8.409  c-0.004,0.012,0.004,0.023,0.003,0.036c-0.003,0.013-0.015,0.021-0.015,0.035v0.53l-0.093-2.131c0-0.005-0.005-0.007-0.006-0.011  c-0.001-0.006,0.004-0.01,0.004-0.015l-1.092-6.887c-0.001-0.005-0.007-0.007-0.008-0.012s0.003-0.009,0.002-0.014  c-0.009-0.03-0.034-0.044-0.052-0.067c-0.017-0.021-0.024-0.047-0.047-0.062c-0.024-0.016-0.053-0.014-0.082-0.019  c-0.026-0.006-0.05-0.023-0.077-0.019c-0.005,0-0.007,0.006-0.012,0.007s-0.009-0.003-0.014-0.002l-0.382,0.106l-0.385,0.076  l-0.383,0.038l-0.37-0.012l-0.394-0.039l-0.386-0.077l-0.37-0.103l-0.344-0.147l-0.34-0.196l-0.322-0.206l-0.304-0.24l-0.146-0.14  l0.199-0.326l0.003-0.005c0,0,0,0,0-0.001l0.003-0.003c0.001-0.003,0-0.005,0.001-0.007l0,0c0.001-0.002,0.003-0.001,0.004-0.003  l0.002-0.004l0,0l0.001-0.002l0.28-0.506c0.001-0.001,0-0.002,0.001-0.002c0-0.001,0-0.001,0.001-0.002l0.229-0.436l0.687,0.211  c0.002,0.001,0.005,0.001,0.008,0.001c0.001,0.001,0.001,0.002,0.002,0.002l0.89,0.229c0.001,0,0.002,0,0.002,0.001  c0.001,0,0.001,0,0.001,0l0.89,0.215c0.004,0.002,0.008,0.001,0.012,0.002c0.001,0,0.001,0.001,0.002,0.001l0.903,0.162  c0.003,0.001,0.007,0.001,0.011,0.001c0.001,0,0.001,0.001,0.002,0.001l0.903,0.108c0.003,0,0.006,0,0.009,0l0.911,0.094  c0.003,0.001,0.006,0.001,0.009,0.001c0.001,0,0.001,0,0.001,0l0.917,0.055c0.003,0,0.007,0,0.01,0l0,0l0.903,0.014  c0.001,0,0.002,0,0.003,0c0.003,0,0.005,0,0.007-0.001l0.922-0.026c0.001,0,0.001,0,0.001,0c0.007,0,0.014,0,0.021-0.001  l0.902-0.081c0.001,0,0.001,0,0.001,0c0.001,0,0.002,0,0.003,0l0.902-0.095c0.001,0,0.001,0,0.002,0  c0.004-0.001,0.007-0.001,0.011-0.001l0.799-0.13l0.687,0.708L59.249,26.053z M57.781,24.92l-0.894,0.093l0,0l-0.9,0.081  l-0.908,0.025l0,0l-0.902-0.013l-0.907-0.054l0,0l-0.901-0.093c0,0,0,0-0.001,0l-0.901-0.108l-0.882-0.157l-0.882-0.214  c-0.001,0-0.001,0-0.001,0l-0.889-0.229h-0.001l-0.609-0.188l0.086-0.177c0.001-0.001,0-0.002,0-0.003  c0.001-0.001,0.003-0.002,0.003-0.003l0.242-0.539c0.002-0.002,0-0.005,0-0.006c0.002-0.003,0.004-0.004,0.005-0.006l0.202-0.525  c0-0.001,0-0.001,0-0.001c0.001-0.002,0.001-0.002,0.002-0.003l0.202-0.553c0-0.001-0.001-0.002,0-0.004  c0-0.001,0.002-0.002,0.003-0.004l0.175-0.539c0.001-0.001,0-0.002,0-0.004c0-0.001,0.002-0.002,0.002-0.004l0.162-0.565  c0-0.001-0.001-0.002-0.001-0.003c0.001-0.001,0.002-0.001,0.002-0.002l0.091-0.349l1.843,0.446  c0.019,0.004,0.036,0.007,0.055,0.007c0.045,0,0.09-0.014,0.129-0.041l0.688-0.47l2.745,0.585l3.42,3.541L57.781,24.92z   M51.864,16.024c0.001,0,0.002-0.001,0.002-0.001c0.005-0.001,0.01,0,0.016-0.001l0.525-0.095c0.002,0,0.003-0.003,0.006-0.003  c0.009-0.002,0.018-0.002,0.026-0.005l0.485-0.162c0.003-0.001,0.003-0.004,0.006-0.005c0.005-0.002,0.01-0.001,0.015-0.003  l0.484-0.216c0.006-0.002,0.007-0.01,0.013-0.013c0.008-0.004,0.017-0.002,0.024-0.008l0.432-0.296  c0.005-0.004,0.005-0.011,0.01-0.015s0.012-0.002,0.017-0.007l0.377-0.351c0.005-0.004,0.003-0.011,0.007-0.015  s0.011-0.003,0.014-0.007l0.284-0.341c0.005,0.002,0.006,0.008,0.011,0.009l0.175,0.055c0.016,0.005,0.03,0.005,0.046,0.007  c0.002,0,0.003,0.002,0.005,0.002l0.175,0.014c0.006,0.001,0.012,0.001,0.017,0.001l0,0c0,0,0,0,0.001,0l0,0l0,0  c0.012,0,0.022-0.001,0.034-0.003l0.054-0.008l-0.156,2.732c-0.007,0.127,0.09,0.235,0.217,0.243c0.005,0,0.009,0,0.013,0  c0.122,0,0.224-0.095,0.23-0.217l0.092-1.613l0.092,0.306c0,0.001,0.001,0.001,0.002,0.003c0,0.001-0.001,0.002-0.001,0.004  l0.135,0.404c0.001,0.001,0.002,0.001,0.003,0.003c0,0.001-0.001,0.002,0,0.003l0.147,0.404c0.004,0.011,0.015,0.016,0.021,0.025  c0.003,0.007,0,0.015,0.004,0.021l0.893,1.375l-0.401,0.176c-0.005,0.002-0.006,0.009-0.011,0.012  c-0.005,0.002-0.011-0.001-0.016,0.002l-0.404,0.242c-0.004,0.003-0.004,0.008-0.008,0.011s-0.01,0.001-0.014,0.004l-0.391,0.296  c-0.003,0.003-0.003,0.008-0.006,0.011s-0.008,0.001-0.011,0.004l-0.351,0.323c-0.003,0.002-0.002,0.006-0.004,0.009  c-0.003,0.002-0.007,0.001-0.009,0.004l-0.323,0.351c-0.004,0.005-0.003,0.011-0.007,0.017c-0.003,0.004-0.01,0.004-0.014,0.009  l-0.27,0.391c-0.002,0.002,0,0.006-0.002,0.008c-0.001,0.002-0.004,0.002-0.006,0.005l-0.156,0.262l-1.826-0.418l-0.502-0.588  c0-0.001,0-0.001,0-0.001l-0.801-0.94l-0.048-0.666l0,0l-0.095-1.44c-0.001-0.02-0.019-0.031-0.025-0.049  c-0.01-0.032-0.02-0.057-0.041-0.081c-0.019-0.02-0.038-0.03-0.062-0.043c-0.02-0.011-0.029-0.031-0.052-0.036l-0.017-0.004  L51.864,16.024z M54.866,13.224l0.102-0.025l0.065,0.008c0.009,0.002,0.019,0.003,0.028,0.003l0,0h0.036l0.099,0.041l0.107,0.068  l0.072,0.08l0.046,0.109l0.028,0.122l-0.008,0.105l-0.047,0.121l-0.069,0.109l-0.042,0.041l-0.038,0.031l-0.105,0.052l-0.116,0.019  L54.902,14.1l-0.107-0.033L54.713,14c-0.001-0.001-0.001-0.002-0.001-0.003c-0.002,0-0.003,0-0.004-0.001l-0.003-0.003l-0.095-0.095  l-0.043-0.102l-0.026-0.112l0.019-0.118l0.036-0.119l0.072-0.099l0.087-0.078L54.866,13.224z M48.552,18.924l0.211-0.162  l0.222-0.143l0.232-0.13l0.256-0.128l0.224-0.1l0.252-0.076c0.001,0,0.002,0,0.002,0l0.276-0.079l0.255-0.048l0.264-0.026l0,0  l0.047-0.002l0.038,0.518c0.002,0.029,0.023,0.048,0.035,0.072c0.009,0.021,0.004,0.043,0.019,0.06l0.632,0.741l-0.51,0.178  l-2.55-0.592L48.552,18.924z M51.836,19.797l0.412,0.483l-0.119-0.026l-0.579-0.357L51.836,19.797z M48.307,13.252l-0.13-0.974  l0.025-0.733l0.183-0.677c0.002-0.011-0.006-0.021-0.004-0.031c0.001-0.011,0.012-0.017,0.012-0.028v-0.351  c0-0.075-0.043-0.134-0.101-0.176L48.18,9.303l0.066-0.24l0.08-0.243c0.001-0.001,0-0.003,0-0.004c0-0.002,0.002-0.003,0.003-0.004  l0.188-0.647l0,0c0,0,0,0,0-0.001l0.077-0.267l0.104-0.221l0.149-0.226l0.154-0.201L49.2,7.087l0.222-0.148l0.227-0.106l0.245-0.086  l0.263-0.048l0.249-0.013l0.257,0.025l0.157,0.035l0.104,0.287c0.002,0.005,0.008,0.008,0.011,0.014c0.001,0.003-0.002,0.007,0,0.01  l0.188,0.378c0.003,0.004,0.007,0.006,0.01,0.01c0.001,0.003,0,0.007,0.001,0.01l0.229,0.364c0.002,0.002,0.005,0.001,0.007,0.003  c0.002,0.003,0,0.007,0.002,0.01l0.256,0.351c0.003,0.004,0.009,0.002,0.012,0.006s0.002,0.01,0.005,0.014l0.283,0.31  c0.002,0.002,0.005,0.001,0.007,0.004c0.002,0.002,0.001,0.005,0.004,0.008l0.31,0.296c0.004,0.004,0.011,0.003,0.015,0.006  c0.005,0.004,0.004,0.011,0.009,0.014l0.35,0.257c0.002,0.001,0.005,0,0.007,0.001c0.001,0.001,0.001,0.003,0.002,0.004l0.364,0.243  c0.005,0.003,0.012,0.002,0.017,0.005c0.004,0.002,0.004,0.007,0.008,0.009l0.272,0.137l0.021,0.127  c0,0.004,0.005,0.006,0.005,0.011c0.002,0.003-0.002,0.007-0.001,0.01l0.067,0.256c0.001,0.003,0.004,0.004,0.005,0.007  s-0.002,0.005-0.001,0.008l0.081,0.243c0.002,0.005,0.008,0.008,0.01,0.013c0.002,0.004-0.001,0.008,0.001,0.012l0.107,0.229v0.001  l0.106,0.237c0.003,0.009,0.012,0.012,0.016,0.02c0.004,0.006,0,0.012,0.004,0.018l0.148,0.216c0.001,0.001,0.003,0.001,0.004,0.002  s0,0.003,0.001,0.004l0.147,0.202c0.002,0.001,0.003,0,0.005,0.002c0.001,0.002,0,0.004,0.001,0.006l0.162,0.202  c0.004,0.004,0.011,0.003,0.015,0.007c0.005,0.005,0.003,0.014,0.008,0.018l0.189,0.176l0.188,0.175  c0.005,0.005,0.012,0.003,0.017,0.007s0.005,0.011,0.01,0.015l0.216,0.148c0,0,0.001,0,0.002,0c0,0.001,0,0.001,0.001,0.001  l0.103,0.068l0.01,0.388l-0.056,0.428l-0.146,0.036c-0.007,0.002-0.009,0.009-0.015,0.011c-0.007,0.002-0.013-0.003-0.019,0  l-0.162,0.067c-0.014,0.006-0.017,0.021-0.028,0.028c-0.012,0.007-0.026,0.004-0.037,0.014l-0.135,0.121  c-0.007,0.006-0.005,0.016-0.011,0.022c-0.006,0.006-0.016,0.006-0.021,0.013l-0.108,0.148c-0.009,0.011-0.003,0.025-0.009,0.038  c-0.006,0.012-0.021,0.017-0.024,0.029l-0.055,0.176c-0.001,0.006,0.003,0.011,0.002,0.017c-0.002,0.007-0.008,0.009-0.01,0.016  l-0.026,0.176c-0.003,0.016,0.01,0.027,0.011,0.043c0,0.015-0.011,0.027-0.008,0.043l0.041,0.176  c0.001,0.008,0.009,0.011,0.012,0.018c0.001,0.007-0.003,0.013,0,0.019l0.067,0.162c0.008,0.02,0.025,0.029,0.037,0.045  c0.007,0.009,0.004,0.02,0.011,0.027l-0.272,0.327l-0.354,0.328l-0.403,0.277l-0.448,0.199l-0.467,0.155l-0.499,0.09l-2.283,0.237  l-0.421-0.095l-0.166-0.222l-0.433-1.548l0,0c-0.001-0.001,0-0.001,0-0.002L48.307,13.252z M34.143,16.317  c0.004,0.002,0.01,0.001,0.014,0.004s0.003,0.007,0.007,0.009l0.135,0.081c0.006,0.004,0.013,0.002,0.02,0.005  c0.004,0.002,0.004,0.007,0.008,0.009l0.181,0.077l0.102,0.051l0.007,0.121l-0.078,0.146c-0.013,0.023-0.003,0.049-0.007,0.074  c-0.005,0.026-0.021,0.048-0.017,0.075l0.023,0.127v0.143c0,0.004,0.004,0.007,0.004,0.011s-0.004,0.006-0.003,0.01l0.012,0.129  l-0.011,0.129l-0.023,0.129l-0.037,0.139l-0.037,0.133l-0.059,0.143l-0.149,0.286l-0.177,0.264l-0.209,0.247l-0.235,0.21  l-0.259,0.186l-0.277,0.15l-0.228,0.095l-0.29-0.109l0.058-0.009c0.002,0,0.003-0.002,0.004-0.002  c0.01-0.002,0.019-0.001,0.027-0.004l0.188-0.054c0.002-0.001,0.002-0.003,0.004-0.003c0.003-0.001,0.007-0.001,0.011-0.002  l0.188-0.067c0.006-0.002,0.007-0.009,0.012-0.011c0.008-0.004,0.018-0.002,0.026-0.007l0.161-0.095  c0.008-0.005,0.009-0.014,0.015-0.02c0.008-0.005,0.018-0.003,0.025-0.009l0.148-0.135c0.003-0.004,0.002-0.009,0.005-0.012  s0.008-0.002,0.011-0.005l0.121-0.135c0.001-0.001,0-0.003,0.002-0.005c0.001-0.001,0.003-0.001,0.004-0.002l0.135-0.162  c0.004-0.005,0.002-0.012,0.005-0.017c0.003-0.004,0.01-0.002,0.012-0.006l0.242-0.376l0.129-0.181c0.003-0.005,0-0.01,0.003-0.014  c0.004-0.007,0.012-0.01,0.016-0.018l0.107-0.215c0.003-0.006-0.001-0.012,0.001-0.019c0.004-0.008,0.013-0.011,0.015-0.02  l0.067-0.229c0.002-0.008-0.004-0.014-0.002-0.021c0.001-0.008,0.009-0.012,0.01-0.02l0.026-0.243  c0.001-0.007-0.005-0.012-0.005-0.019c0-0.008,0.007-0.012,0.007-0.02l-0.014-0.242c-0.001-0.011-0.011-0.017-0.012-0.026  c-0.002-0.009,0.005-0.017,0.003-0.026l-0.067-0.229c-0.002-0.005-0.007-0.006-0.008-0.01c-0.002-0.005,0.001-0.009,0-0.013  l-0.095-0.229c-0.003-0.008-0.013-0.01-0.017-0.017c-0.004-0.008,0-0.016-0.005-0.023l-0.135-0.202  c-0.004-0.007-0.014-0.007-0.02-0.013c-0.003-0.005-0.002-0.01-0.006-0.015l0.019,0.002L34.143,16.317z M25.885,17.674  c-0.017,0.004-0.024,0.021-0.039,0.029c-0.016,0.007-0.034,0.002-0.049,0.014l-0.112,0.089l-0.502-0.064l-0.56-0.269l-0.058-0.08  v-0.094l0.033,0.021c0.008,0.005,0.018,0.004,0.025,0.008c0.006,0.003,0.006,0.01,0.012,0.012l0.075,0.032l0.471,0.301  c0.032,0.021,0.067,0.027,0.103,0.03c0.005,0.001,0.008,0.006,0.013,0.006l0.008,0.001h0.001c0,0,0,0,0.001,0l0.327,0.013  c0.003,0,0.006,0.001,0.009,0.001c0.027,0,0.056-0.006,0.083-0.017l0.504-0.193l-0.051,0.09L25.885,17.674z M24.062,16.092  l0.443-0.696l0.251-0.279l0.097,0.193l0.101,0.251l0.076,0.258l0.016,0.062l-0.03-0.021c-0.106-0.069-0.248-0.042-0.319,0.064  c-0.07,0.105-0.041,0.248,0.064,0.318l0.485,0.323c0.002,0.002,0.006,0.002,0.009,0.003c0.002,0.002,0.002,0.005,0.004,0.006  l0.137,0.078l0.002,0.004l0.034,0.078c0.011,0.025,0.032,0.041,0.05,0.06c0.007,0.008,0.006,0.02,0.014,0.027l0.081,0.067  l0.081,0.067c0.012,0.009,0.027,0.008,0.04,0.014c0.011,0.007,0.015,0.021,0.026,0.024l0.107,0.041  c0.014,0.005,0.027,0.005,0.041,0.007c0.003,0.001,0.004,0.004,0.008,0.005l0.094,0.013c0.012,0.002,0.021,0.003,0.033,0.003l0,0  h0.043l0.026,0.017l-0.472,0.183l-0.227-0.009l-0.434-0.277c-0.006-0.004-0.013,0-0.02-0.003c-0.007-0.004-0.008-0.012-0.014-0.015  l-0.073-0.031l-0.146-0.097l-0.145-0.097l-0.521-0.51L24.062,16.092z M25.506,15.824L25.506,15.824l-0.021-0.08l0.072,0.053  C25.542,15.808,25.52,15.807,25.506,15.824z M26.891,17.042l-0.092-0.055c0,0,0,0-0.001,0l-0.004-0.003v-0.001h-0.001l-0.051-0.032  l0.519-0.095l0.021,0.026c0.005,0.006,0.013,0.004,0.017,0.008c0.005,0.006,0.004,0.015,0.009,0.02l0.135,0.121  c0.005,0.003,0.01,0.002,0.015,0.006c0.004,0.003,0.003,0.009,0.008,0.012l0.103,0.072L26.891,17.042z M33.513,63.256l0.269-2.123  c0.001-0.004-0.003-0.006-0.003-0.01c0.001-0.004,0.005-0.008,0.005-0.012l0.094-2.533l1.509-15.576l0.553-4.565  c0-0.001,0-0.001,0-0.001l0.309-2.123c0-0.003-0.002-0.005-0.002-0.008c0-0.004,0.004-0.005,0.004-0.008l0.511-6.717l0,0l0.417-3.79  l0,0l0.297-1.873l0,0l0.238-1.393l0.09-0.249l0.043,0.023l-2.742,52.863c0,0,0.001,0,0.001,0.002  c-0.001,0.031,0.02,0.057,0.03,0.084s0.011,0.059,0.03,0.08c0.001,0.002,0.001,0.002,0.001,0.004l0.809,0.848  c0.006,0.008,0.016,0.004,0.021,0.01c0.007,0.006,0.006,0.016,0.013,0.02l3.089,2.191l-3.514,1.021l-2.582,0.346h-0.982l0.307-1.93  c0.001-0.004-0.003-0.008-0.003-0.012c0.001-0.004,0.005-0.008,0.005-0.012l0.148-2.385l0,0l0.322-3.158c0,0-0.001,0,0-0.002  c0-0.002,0.001-0.002,0.001-0.002L33.513,63.256z M76.721,70.248c0,0.002,0.001,0.002,0.001,0.004v0.002l1.469,8.207  c0,0.002,0.002,0.002,0.002,0.004l-0.001,0.002l0.51,2.469l0.188,1.346c0.001,0.004,0.006,0.008,0.007,0.012  c0.002,0.006-0.002,0.01-0.001,0.014l0.161,0.611l-0.022,0.016l-0.448,0.189h-0.749c-0.019,0-0.031,0.016-0.049,0.021  c-0.018,0.004-0.034-0.006-0.051,0.002l-0.47,0.229l-10.116,1.859V84.93l3.596-1.656l4.596-1.371  c0.009-0.002,0.012-0.014,0.021-0.018c0.036-0.016,0.064-0.039,0.09-0.072c0.009-0.012,0.02-0.02,0.026-0.033  c0.003-0.006,0.009-0.01,0.012-0.016c0.009-0.023-0.003-0.047-0.003-0.072c0.002-0.025,0.016-0.049,0.008-0.074  c-0.001-0.006-0.008-0.008-0.011-0.014c-0.01-0.029-0.034-0.045-0.057-0.068c-0.02-0.02-0.032-0.043-0.058-0.055  c-0.006-0.004-0.007-0.012-0.014-0.014l-7.594-2.887l1.943-15.559l1.952-8.266c0.002-0.01-0.006-0.018-0.005-0.027  s0.011-0.016,0.011-0.025v-0.729v-1.229l0.503,0.547l0.644,1.025l-1.577,10.051c-0.02,0.127,0.066,0.244,0.192,0.264  c0.012,0.002,0.023,0.002,0.036,0.002c0.11,0,0.209-0.08,0.227-0.193l1.335-8.51l2.616,21.277c0,0,0,0,0,0.002l0,0l0.432,3.396  c0.015,0.115,0.113,0.199,0.228,0.199c0.01,0,0.02,0,0.029-0.002c0.126-0.016,0.215-0.131,0.199-0.256l-0.432-3.395  c0,0,0.001,0,0.001-0.002l-2.691-21.887l0.139,0.219c0.005,0.01,0.018,0.006,0.023,0.014c0.01,0.012,0.008,0.027,0.019,0.037  l0.593,0.525c0.044,0.039,0.099,0.059,0.152,0.059h0.189c0.009,0,0.015-0.01,0.024-0.012l0.007,0.021L76.721,70.248z M71.162,35.957  l0.643,2.356l0.604,3.104c0.002,0.007,0.009,0.011,0.011,0.017c0.001,0.006-0.004,0.011-0.001,0.017l1.062,2.998L74,46.342  l0.304,1.832l-0.039,0.376l-0.01-0.014c-0.004-0.006-0.011-0.006-0.015-0.01c-0.003-0.005-0.002-0.012-0.006-0.016l-0.485-0.539  c-0.003-0.004-0.009-0.003-0.013-0.007s-0.003-0.01-0.007-0.013l-0.872-0.757l-0.195-0.525c-0.003-0.01-0.015-0.012-0.02-0.021  c-0.005-0.01,0-0.021-0.006-0.028l-0.202-0.297c-0.001-0.001-0.003-0.001-0.004-0.002c-0.001-0.002,0-0.004-0.001-0.006  l-0.432-0.579c0,0-0.001,0-0.001-0.001l-0.396-0.582l-0.131-0.209v-0.001l-0.242-0.391l-0.275-0.444l0,0  c0-0.082-0.05-0.141-0.113-0.182l-0.334-0.604l0,0c0-0.001,0-0.002,0-0.002l-0.351-0.62c0,0-0.001,0-0.001-0.001l-0.314-0.629  l-0.296-0.646c-0.003-0.006-0.011-0.007-0.014-0.013s0-0.013-0.004-0.019l-4.002-6.051c-0.001-0.002-0.004-0.002-0.005-0.003  c-0.001-0.002,0-0.003-0.001-0.004l-0.236-0.328l-1.853-3.115l0,0c0,0-0.001,0-0.001-0.001l-0.001-0.003l-2.075-3.503l0,0  l-1.51-2.561c-0.005-0.009-0.016-0.009-0.022-0.017c-0.006-0.008-0.003-0.02-0.011-0.026l-0.915-0.942c0-0.001,0-0.001,0-0.001  l-3.511-3.636l1.092-0.323c0.05-0.016,0.084-0.053,0.113-0.092c0.004-0.006,0.015-0.003,0.019-0.011  c0.001-0.002,0-0.004,0.001-0.005c0.015-0.026,0.01-0.058,0.014-0.088c0.003-0.029,0.017-0.057,0.009-0.086  c-0.001-0.001,0.001-0.003,0-0.005c-0.007-0.025-0.031-0.036-0.046-0.057c-0.019-0.025-0.026-0.058-0.056-0.075l-0.809-0.485  c-0.007-0.004-0.015,0-0.021-0.003c-0.026-0.014-0.054-0.011-0.084-0.013s-0.057-0.008-0.085,0.002  c-0.006,0.002-0.014-0.002-0.021,0l-0.39,0.171l0.096-0.139l0.307-0.332l0.336-0.311l0.371-0.282l0.382-0.229l0.409-0.179  l0.221-0.078l0.216-0.076l0.452-0.116l0.449-0.052l0.448-0.025l0.319,0.027l0.093,0.212c0.002,0.005,0.007,0.007,0.009,0.011  c0.002,0.003,0,0.007,0.001,0.011l0.176,0.31c0.001,0.003,0.007,0.002,0.009,0.005c0.002,0.004,0,0.009,0.003,0.013l0.216,0.311  c0.003,0.005,0.011,0.003,0.015,0.008c0.004,0.006,0.002,0.014,0.007,0.019l0.256,0.27c0.003,0.003,0.007,0.002,0.009,0.004  c0.003,0.003,0.002,0.007,0.004,0.009l0.27,0.242c0.004,0.004,0.009,0.002,0.013,0.005s0.003,0.008,0.006,0.011l0.297,0.216  c0.005,0.003,0.01,0.001,0.014,0.004s0.004,0.008,0.008,0.011l0.311,0.175c0.003,0.002,0.007,0.001,0.011,0.003  c0.002,0.001,0.002,0.003,0.003,0.004l0.337,0.162c0.008,0.004,0.016,0.002,0.023,0.005c0.004,0.001,0.005,0.006,0.009,0.007  l0.351,0.108c0.007,0.002,0.013,0.001,0.02,0.003c0.002,0,0.003,0.003,0.006,0.004l0.363,0.067c0.009,0.001,0.017,0.001,0.024,0.002  c0.001,0,0.001,0,0.001,0l0.364,0.027c0.006,0.001,0.011,0.001,0.017,0.001c0.003,0,0.006,0,0.009,0l0.296-0.011l1.135,0.673  l0.898,1.068l1.658,2.406l0.568,1.006l0.973,2.33l0.401,1.352c0.003,0.009,0.011,0.013,0.014,0.021  c0.003,0.006-0.001,0.013,0.002,0.018l0.857,1.689l1.451,3.251L71.162,35.957z"/><text x="0" y="115" fill="#000000" font-size="5px" font-weight="bold" font-family="'Helvetica Neue', Helvetica, Arial-Unicode, Arial, Sans-serif">Created by Lluisa Iborra</text><text x="0" y="120" fill="#000000" font-size="5px" font-weight="bold" font-family="'Helvetica Neue', Helvetica, Arial-Unicode, Arial, Sans-serif">from the Noun Project</text></svg>